<svg id="Layer_1" data-name="Layer 1" xmlns="http://www.w3.org/2000/svg" viewBox="0 0 418.65 418.65"><defs><style>.cls-1{fill:#95d4d1;}.cls-2{fill:#46a4a3;}.cls-3{fill:#53b1b2;}.cls-4{fill:#c3a36b;}.cls-5{fill:#ac9962;}.cls-6{fill:#efa955;}.cls-7{fill:#e29332;}.cls-8{fill:#1c3a6a;}.cls-9{fill:#1c3968;}</style></defs><rect id="Rectangle_118" data-name="Rectangle 118" class="cls-1" x="86.89" y="104.63" width="214" height="214"/><g id="Group_208" data-name="Group 208"><rect id="Rectangle_126-2" data-name="Rectangle 126-2" class="cls-2" x="202.89" y="183.63" width="75" height="8"/><rect id="Rectangle_137" data-name="Rectangle 137" class="cls-2" x="108.89" y="163.63" width="169" height="8"/><rect id="Rectangle_138" data-name="Rectangle 138" class="cls-2" x="149.89" y="127.63" width="88" height="23"/><rect id="Rectangle_127-2" data-name="Rectangle 127-2" class="cls-2" x="202.89" y="204.63" width="75" height="8"/><rect id="Rectangle_130-3" data-name="Rectangle 130-3" class="cls-2" x="108.89" y="245.63" width="169" height="8"/><rect id="Rectangle_128-2" data-name="Rectangle 128-2" class="cls-2" x="202.89" y="224.63" width="75" height="9"/><rect id="Rectangle_129-3" data-name="Rectangle 129-3" class="cls-2" x="108.89" y="266.63" width="169" height="8"/><rect id="Rectangle_131-3" data-name="Rectangle 131-3" class="cls-2" x="108.89" y="286.63" width="169" height="8"/></g><path class="cls-3" d="M141.33,208a10.52,10.52,0,0,1,0-14.55,10.54,10.54,0,1,0,0,14.55Z"/><path class="cls-4" d="M141.33,208a10.51,10.51,0,0,0,15.22,0,10.52,10.52,0,0,1,0-14.55,10.51,10.51,0,0,0-15.22,0,10.52,10.52,0,0,1,0,14.55Z"/><ellipse class="cls-5" cx="141.33" cy="200.75" rx="2.92" ry="7.28"/><path class="cls-6" d="M156.55,208a10.54,10.54,0,1,0,0-14.55,10.52,10.52,0,0,1,0,14.55Z"/><ellipse class="cls-7" cx="156.55" cy="200.75" rx="2.92" ry="7.28"/><path class="cls-8" d="M116.35,220.49l-.08,0,1.63-1.84a.63.63,0,0,0,.17-.43v-1.11a.36.36,0,0,0-.08-.24.27.27,0,0,0-.2-.09h-4.92a.26.26,0,0,0-.19.09.36.36,0,0,0-.08.24v1.23a.4.4,0,0,0,.08.23.26.26,0,0,0,.19.09h3l-1.75,1.82a.6.6,0,0,0-.17.45v.73a.38.38,0,0,0,.08.23.26.26,0,0,0,.19.1h1.18c.74,0,1.12.34,1.12,1a1.14,1.14,0,0,1-.31.84,1.13,1.13,0,0,1-.85.31c-.63,0-1-.22-1.16-.68a.52.52,0,0,0-.14-.19.32.32,0,0,0-.2-.06h-1.4a.21.21,0,0,0-.16.08.27.27,0,0,0-.07.2,2.41,2.41,0,0,0,.36,1.17,2.62,2.62,0,0,0,1,1,4,4,0,0,0,3.36,0,2.71,2.71,0,0,0,1.12-1,2.86,2.86,0,0,0,.4-1.53,2.74,2.74,0,0,0-.57-1.86A2.56,2.56,0,0,0,116.35,220.49Z"/><path class="cls-8" d="M125.93,223.93H122.6l3.34-5.14a.78.78,0,0,0,.14-.44v-1.27a.36.36,0,0,0-.07-.24.25.25,0,0,0-.19-.09h-5.4a.23.23,0,0,0-.19.09.32.32,0,0,0-.08.24v1.29a.31.31,0,0,0,.08.23.22.22,0,0,0,.19.1h3.24l-3.45,5.13a.74.74,0,0,0-.16.47v1.26a.41.41,0,0,0,.08.25.23.23,0,0,0,.19.09h5.61a.25.25,0,0,0,.2-.09.36.36,0,0,0,.08-.23v-1.31a.36.36,0,0,0-.08-.24A.23.23,0,0,0,125.93,223.93Z"/><path class="cls-8" d="M133.49,224H130V222.2h3.17a.23.23,0,0,0,.19-.09.4.4,0,0,0,.08-.23v-1.14a.36.36,0,0,0-.08-.24.22.22,0,0,0-.19-.1H130v-1.77h3.41a.25.25,0,0,0,.19-.09.39.39,0,0,0,.07-.23v-1.23a.36.36,0,0,0-.07-.24.25.25,0,0,0-.19-.09h-5a.23.23,0,0,0-.18.09.32.32,0,0,0-.08.24v8.5a.34.34,0,0,0,.08.23.23.23,0,0,0,.18.09h5.08a.23.23,0,0,0,.19-.09.4.4,0,0,0,.08-.23v-1.23a.36.36,0,0,0-.08-.24A.23.23,0,0,0,133.49,224Z"/><path class="cls-8" d="M140.6,222.27a2.43,2.43,0,0,0,1-1,3.27,3.27,0,0,0,.35-1.56,2.72,2.72,0,0,0-3-3h-2.91a.25.25,0,0,0-.19.09.36.36,0,0,0-.08.24v8.5a.4.4,0,0,0,.08.23.25.25,0,0,0,.19.09h1.38a.23.23,0,0,0,.19-.09.31.31,0,0,0,.08-.23v-2.91h1.1l1.21,2.88a.46.46,0,0,0,.44.35h1.42a.19.19,0,0,0,.16-.08.28.28,0,0,0,.07-.19.39.39,0,0,0,0-.14Zm-.92-1.75a.93.93,0,0,1-.75.3H137.7v-2.25h1.23a.91.91,0,0,1,.76.31,1.25,1.25,0,0,1,.25.83A1.19,1.19,0,0,1,139.68,220.52Z"/><path class="cls-8" d="M149.36,217.55a3.46,3.46,0,0,0-4.72,0,4,4,0,0,0-.94,2.67c0,.25,0,.63,0,1.13s0,.88,0,1.13a3.91,3.91,0,0,0,.92,2.65,3.58,3.58,0,0,0,4.75,0,3.86,3.86,0,0,0,.92-2.65c0-.51,0-.88,0-1.13s0-.63,0-1.13A3.91,3.91,0,0,0,149.36,217.55Zm-1.06,4.85a2.16,2.16,0,0,1-.37,1.32,1.12,1.12,0,0,1-.93.43,1.1,1.1,0,0,1-.93-.43,2.23,2.23,0,0,1-.38-1.32c0-.25,0-.61,0-1.07s0-.83,0-1.07a2.24,2.24,0,0,1,.38-1.33,1.15,1.15,0,0,1,.93-.43,1.18,1.18,0,0,1,.93.43,2.17,2.17,0,0,1,.37,1.33c0,.48,0,.84,0,1.07S148.32,221.89,148.3,222.4Z"/><path class="cls-8" d="M160.19,217a3.6,3.6,0,0,0-1.69-.39,3.12,3.12,0,0,0-2.37.92,3.8,3.8,0,0,0-.93,2.62c0,.25,0,.64,0,1.18s0,.92,0,1.15a3.89,3.89,0,0,0,.91,2.64,3.16,3.16,0,0,0,2.39.9,3.59,3.59,0,0,0,1.69-.38,2.91,2.91,0,0,0,1.18-1.1,3.22,3.22,0,0,0,.45-1.67.31.31,0,0,0-.06-.19.23.23,0,0,0-.17-.08h-1.44a.32.32,0,0,0-.23.07.57.57,0,0,0-.11.27,1.6,1.6,0,0,1-.46.92,1.27,1.27,0,0,1-.86.28c-.84,0-1.27-.57-1.3-1.72,0-.26,0-.63,0-1.12s0-.85,0-1.08c0-1.15.46-1.73,1.3-1.73a1.29,1.29,0,0,1,.85.27,1.69,1.69,0,0,1,.47.94.48.48,0,0,0,.12.26.31.31,0,0,0,.22.08h1.44a.23.23,0,0,0,.16-.08.24.24,0,0,0,.07-.17v0a3.28,3.28,0,0,0-.45-1.67A2.89,2.89,0,0,0,160.19,217Z"/><path class="cls-8" d="M168.93,223.93h-3.24v-6.85a.36.36,0,0,0-.08-.24.23.23,0,0,0-.19-.09H164a.26.26,0,0,0-.19.09.36.36,0,0,0-.08.24v8.5a.4.4,0,0,0,.08.23.26.26,0,0,0,.19.09h4.92a.23.23,0,0,0,.19-.09.39.39,0,0,0,.07-.23v-1.31a.36.36,0,0,0-.07-.24A.22.22,0,0,0,168.93,223.93Z"/><path class="cls-8" d="M176.85,216.75h-1.39a.26.26,0,0,0-.19.09.36.36,0,0,0-.08.24v5.32a2.07,2.07,0,0,1-.33,1.27,1.1,1.1,0,0,1-.94.43,1.12,1.12,0,0,1-.95-.43,2.1,2.1,0,0,1-.32-1.27v-5.32a.36.36,0,0,0-.08-.24.27.27,0,0,0-.2-.09H171a.26.26,0,0,0-.19.09.36.36,0,0,0-.08.24v5.33a3.87,3.87,0,0,0,.85,2.72,3.52,3.52,0,0,0,4.7,0,3.87,3.87,0,0,0,.85-2.72v-5.33a.36.36,0,0,0-.08-.24A.23.23,0,0,0,176.85,216.75Z"/><path class="cls-8" d="M185.38,221.9a1.94,1.94,0,0,0-.73-.79,1.91,1.91,0,0,0,.61-.67,2.09,2.09,0,0,0,.27-1.1,2.67,2.67,0,0,0-.65-1.92,2.74,2.74,0,0,0-2-.67h-3.26a.26.26,0,0,0-.19.09.36.36,0,0,0-.08.24v8.5a.4.4,0,0,0,.08.23.26.26,0,0,0,.19.09H183a2.65,2.65,0,0,0,2-.73,2.82,2.82,0,0,0,.7-2A2.54,2.54,0,0,0,185.38,221.9Zm-4.11-3.45h1.39a.83.83,0,0,1,.65.26,1,1,0,0,1,.22.7,1.08,1.08,0,0,1-.22.71.8.8,0,0,1-.65.27h-1.39Zm2.17,5.44a.84.84,0,0,1-.69.31h-1.48v-2.15h1.48a.86.86,0,0,1,.69.3,1.25,1.25,0,0,1,.24.78A1.21,1.21,0,0,1,183.44,223.89Z"/><path class="cls-9" d="M188.45,217v.22h-.56V219h-.28v-1.86H187V217Z"/><path class="cls-9" d="M190.91,217V219h-.28v-1.54l-.69,1.54h-.19l-.69-1.54V219h-.27V217h.29l.77,1.72.77-1.72Z"/></svg>