<svg id="Layer_1" data-name="Layer 1" xmlns="http://www.w3.org/2000/svg" viewBox="0 0 440.63 200.54"><defs><style>.cls-1{fill:#fff;}.cls-2{fill:#c4a46b;}.cls-3{fill:#ad9a62;}.cls-4{fill:#f0aa55;}.cls-5{fill:#e29432;}.cls-6{fill:#1b3a6a;}.cls-7{fill:#1c3968;}</style></defs><path class="cls-1" d="M163.08,99.71a58.92,58.92,0,0,1,0-81.47,59,59,0,1,0,0,81.47Z"/><path class="cls-2" d="M163.08,99.71a58.92,58.92,0,0,0,85.23,0,58.92,58.92,0,0,1,0-81.47,58.9,58.9,0,0,0-85.23,0,58.92,58.92,0,0,1,0,81.47Z"/><ellipse class="cls-3" cx="163.08" cy="58.97" rx="16.35" ry="40.73"/><path class="cls-4" d="M248.31,99.71a59,59,0,1,0,0-81.47,58.89,58.89,0,0,1,0,81.47Z"/><ellipse class="cls-5" cx="248.31" cy="58.97" rx="16.35" ry="40.73"/><path class="cls-6" d="M23.23,169.5l-.42-.15L31.91,159a3.45,3.45,0,0,0,.95-2.42v-6.22a1.92,1.92,0,0,0-.45-1.32,1.39,1.39,0,0,0-1.1-.51H3.77a1.36,1.36,0,0,0-1,.51,1.92,1.92,0,0,0-.45,1.32v6.88a1.94,1.94,0,0,0,.45,1.28,1.32,1.32,0,0,0,1,.55H20.41L10.6,169.28a3.19,3.19,0,0,0-1,2.49v4.1a2,2,0,0,0,.45,1.28,1.33,1.33,0,0,0,1,.55h6.65q6.22,0,6.22,5.85a6.41,6.41,0,0,1-1.7,4.73A6.43,6.43,0,0,1,17.54,190q-5.32,0-6.53-3.81a2.63,2.63,0,0,0-.77-1.1,1.89,1.89,0,0,0-1.08-.29H1.32a1.21,1.21,0,0,0-.93.44,1.59,1.59,0,0,0-.39,1.1,14.09,14.09,0,0,0,2,6.55,14.91,14.91,0,0,0,5.81,5.45,19.72,19.72,0,0,0,9.73,2.2,20.18,20.18,0,0,0,9-2,15,15,0,0,0,6.28-5.64,15.84,15.84,0,0,0,2.28-8.56q0-6.74-3.2-10.36A14.13,14.13,0,0,0,23.23,169.5Z"/><path class="cls-6" d="M76.89,189.48H58.22L77,160.71a4.66,4.66,0,0,0,.78-2.49v-7.1a2,2,0,0,0-.42-1.32,1.34,1.34,0,0,0-1.08-.51H46a1.36,1.36,0,0,0-1,.51,1.94,1.94,0,0,0-.45,1.32v7.25a1.94,1.94,0,0,0,.45,1.28,1.32,1.32,0,0,0,1,.55H64.14L44.87,188.9a4,4,0,0,0-.9,2.63v7.1a2.18,2.18,0,0,0,.42,1.36,1.32,1.32,0,0,0,1.08.55H76.89A1.43,1.43,0,0,0,78,200a1.91,1.91,0,0,0,.45-1.31v-7.33A2.07,2.07,0,0,0,78,190,1.37,1.37,0,0,0,76.89,189.48Z"/><path class="cls-6" d="M119.21,190H99.64V179.82h17.78a1.29,1.29,0,0,0,1.07-.55,2,2,0,0,0,.42-1.28v-6.37a2.18,2.18,0,0,0-.42-1.36,1.28,1.28,0,0,0-1.07-.54H99.64v-9.89h19.09a1.31,1.31,0,0,0,1.08-.54,2.08,2.08,0,0,0,.42-1.29v-6.88a2,2,0,0,0-.42-1.32,1.34,1.34,0,0,0-1.08-.51H90.78a1.36,1.36,0,0,0-1,.51,1.94,1.94,0,0,0-.45,1.32v47.59a2,2,0,0,0,.45,1.28,1.35,1.35,0,0,0,1,.55h28.43a1.32,1.32,0,0,0,1.08-.55,2.07,2.07,0,0,0,.42-1.28v-6.88a2,2,0,0,0-.42-1.32A1.32,1.32,0,0,0,119.21,190Z"/><path class="cls-6" d="M159,180.18a13.53,13.53,0,0,0,5.45-5.49,17.88,17.88,0,0,0,2-8.71q0-8-4.4-12.33t-12.24-4.36H133.52a1.36,1.36,0,0,0-1.05.51,1.94,1.94,0,0,0-.45,1.32v47.59a2,2,0,0,0,.45,1.28,1.35,1.35,0,0,0,1.05.55h7.72a1.43,1.43,0,0,0,1.11-.52,1.91,1.91,0,0,0,.45-1.31V182.45h6.1l6.83,16.11a2.55,2.55,0,0,0,2.45,2h8a1.12,1.12,0,0,0,.87-.48,1.64,1.64,0,0,0,.39-1.06,2.13,2.13,0,0,0-.18-.81Zm-5.15-9.77a5.25,5.25,0,0,1-4.19,1.65H142.8V159.47h6.88a5.12,5.12,0,0,1,4.22,1.72,7.09,7.09,0,0,1,1.41,4.65A6.71,6.71,0,0,1,153.87,170.41Z"/><path class="cls-6" d="M208.05,153.06q-5-5.24-13.23-5.23t-13.2,5.23q-4.94,5.24-5.24,14.9-.06,2.13-.06,6.37t.06,6.3q.3,9.81,5.15,14.86t13.29,5q8.43,0,13.29-5t5.14-14.86q.12-4.26.12-6.3t-.12-6.37Q213,158.3,208.05,153.06Zm-5.93,27.13q-.12,5-2.06,7.39a6.39,6.39,0,0,1-5.24,2.42,6.3,6.3,0,0,1-5.21-2.42q-1.92-2.42-2.1-7.39-.06-2.13-.06-6t.06-6q.18-5,2.13-7.39a6.29,6.29,0,0,1,5.18-2.42,6.39,6.39,0,0,1,5.21,2.42q2,2.42,2.09,7.39.12,4.09.12,6C202.24,175.35,202.2,177.36,202.12,180.19Z"/><path class="cls-6" d="M268.69,150a20.37,20.37,0,0,0-9.46-2.16q-8.39,0-13.29,5.16t-5.21,14.68c0,1.37-.06,3.56-.06,6.59s0,5.12.06,6.44q.3,9.66,5.12,14.75t13.38,5.09a20.37,20.37,0,0,0,9.46-2.16,16.39,16.39,0,0,0,6.61-6.15,18,18,0,0,0,2.48-9.34,1.37,1.37,0,0,0-.32-1.09,1.2,1.2,0,0,0-.93-.44h-8.08a1.75,1.75,0,0,0-1.26.4,3,3,0,0,0-.66,1.5,8.86,8.86,0,0,1-2.57,5.16,7.16,7.16,0,0,1-4.79,1.58q-7.06,0-7.31-9.67c0-1.41-.06-3.49-.06-6.22s0-4.76.06-6.07q.24-9.67,7.31-9.67a7.15,7.15,0,0,1,4.73,1.5q1.78,1.5,2.63,5.24a3.36,3.36,0,0,0,.72,1.5,1.7,1.7,0,0,0,1.2.4h8.08a1.23,1.23,0,0,0,.87-.4,1.37,1.37,0,0,0,.38-1v-.15a18,18,0,0,0-2.48-9.33A16.39,16.39,0,0,0,268.69,150Z"/><path class="cls-6" d="M317.59,189.48H299.45V151.12a2.08,2.08,0,0,0-.41-1.32,1.34,1.34,0,0,0-1.08-.51h-7.9a1.36,1.36,0,0,0-1.05.51,1.94,1.94,0,0,0-.45,1.32v47.59A2,2,0,0,0,289,200a1.35,1.35,0,0,0,1.05.55h27.53a1.32,1.32,0,0,0,1.08-.55,2.07,2.07,0,0,0,.42-1.28v-7.33a2.17,2.17,0,0,0-.42-1.35A1.29,1.29,0,0,0,317.59,189.48Z"/><path class="cls-6" d="M362,148.56h-7.78a1.36,1.36,0,0,0-1.05.51,1.92,1.92,0,0,0-.45,1.32v29.8q0,4.68-1.86,7.1a7,7,0,0,1-10.56,0q-1.83-2.37-1.83-7.13v-29.8a2,2,0,0,0-.44-1.32,1.42,1.42,0,0,0-1.11-.51h-7.72a1.36,1.36,0,0,0-1,.51,1.92,1.92,0,0,0-.45,1.32v29.87q0,10.17,4.76,15.23t13.2,5q8.31,0,13.08-5t4.76-15.23V150.39a2,2,0,0,0-.42-1.32A1.34,1.34,0,0,0,362,148.56Z"/><path class="cls-6" d="M409.72,178.14a11,11,0,0,0-4.13-4.47A10.78,10.78,0,0,0,409,170a11.7,11.7,0,0,0,1.53-6.18q0-7-3.69-10.73t-11.22-3.77H377.39a1.36,1.36,0,0,0-1.05.51,2,2,0,0,0-.44,1.32v47.59a2,2,0,0,0,.44,1.28,1.35,1.35,0,0,0,1.05.55h18.8q7.31,0,11.25-4.1T411.39,185A14.18,14.18,0,0,0,409.72,178.14Zm-23.05-19.33h7.78a4.55,4.55,0,0,1,3.65,1.46,5.75,5.75,0,0,1,1.26,3.88,6,6,0,0,1-1.26,4,4.48,4.48,0,0,1-3.65,1.5h-7.78Zm12.15,30.45A4.59,4.59,0,0,1,395,191h-8.32V178.94H395a4.62,4.62,0,0,1,3.83,1.72A6.75,6.75,0,0,1,400.2,185,6.64,6.64,0,0,1,398.82,189.26Z"/><path class="cls-7" d="M426.91,149.67v1.24h-3.18v10.44h-1.52V150.91H419v-1.24Z"/><path class="cls-7" d="M440.63,149.76v11.59h-1.52V152.7l-3.85,8.65h-1.08l-3.87-8.66v8.66h-1.52V149.76h1.64l4.29,9.58,4.29-9.58Z"/></svg>