<?xml version="1.0" encoding="utf-8"?>
<!-- Generator: Adobe Illustrator 24.3.0, SVG Export Plug-In . SVG Version: 6.00 Build 0)  -->

<svg version="1.1" id="Layer_1" xmlns="http://www.w3.org/2000/svg" xmlns:xlink="http://www.w3.org/1999/xlink" x="0px" y="0px"
	 viewBox="0 0 841.89 595.28" style="enable-background:new 0 0 841.89 595.28;" xml:space="preserve">
<style type="text/css">
	.st0{opacity:0.8;clip-path:url(#SVGID_2_);}
	.st1{opacity:0.8;}
	.st2{fill:#95D4D1;}
</style>
<g>
	<defs>
		<rect id="SVGID_1_" x="123.93" y="0.62" width="594.03" height="594.03"/>
	</defs>
	<clipPath id="SVGID_2_">
		<use xlink:href="#SVGID_1_"  style="overflow:visible;"/>
	</clipPath>
	<g class="st0">
		<g>
			<g class="st1">
				<g>
					<path class="st2" d="M417.98,237.9c29.25,0.13,52.95,24.03,52.82,53.29c-0.13,29.25-24.03,52.95-53.29,52.82
						c-29.25-0.13-52.95-24.03-52.82-53.28C364.83,261.47,388.73,237.77,417.98,237.9z M417.53,342.58
						c28.47,0.12,51.74-22.94,51.86-51.41c0.12-28.47-22.94-51.74-51.41-51.86c-28.47-0.12-51.73,22.94-51.86,51.41
						C366,319.2,389.06,342.46,417.53,342.58z"/>
				</g>
			</g>
			<g class="st1">
				<g>
					<path class="st2" d="M415.59,241.62c27.2,0.12,49.23,22.34,49.11,49.54c-0.12,27.2-22.34,49.23-49.54,49.11
						c-27.2-0.12-49.23-22.34-49.11-49.54C366.17,263.53,388.39,241.5,415.59,241.62z M415.17,338.84
						c26.41,0.11,48-21.28,48.11-47.69c0.11-26.41-21.28-48-47.69-48.11c-26.41-0.11-48,21.28-48.11,47.69
						C367.36,317.15,388.76,338.73,415.17,338.84z"/>
				</g>
			</g>
			<g>
				<circle class="st2" cx="416.3" cy="291.88" r="29.56"/>
			</g>
			<g class="st1">
				<g>
					<path class="st2" d="M418.73,234.53c32.31,0.14,58.47,26.54,58.33,58.84s-26.54,58.47-58.84,58.33
						c-32.31-0.14-58.47-26.54-58.33-58.84C360.03,260.56,386.43,234.39,418.73,234.53z M418.23,350.29
						c31.52,0.14,57.28-25.4,57.42-56.92s-25.4-57.28-56.92-57.42c-31.52-0.14-57.28,25.4-57.42,56.92S386.71,350.16,418.23,350.29z
						"/>
				</g>
			</g>
			<g class="st1">
				<g>
					<path class="st2" d="M414.26,227.69c35.39,0.15,64.06,29.07,63.9,64.46c-0.15,35.39-29.07,64.06-64.46,63.9
						c-35.39-0.15-64.06-29.07-63.9-64.46C349.95,256.2,378.87,227.53,414.26,227.69z M413.71,354.63
						c34.61,0.15,62.88-27.88,63.03-62.49c0.15-34.61-27.88-62.88-62.49-63.03c-34.61-0.15-62.88,27.88-63.03,62.49
						C351.07,326.2,379.1,354.48,413.71,354.63z"/>
				</g>
			</g>
			<g class="st1">
				<g>
					<path class="st2" d="M416.63,255.91c19.49,0.08,35.28,16.01,35.2,35.5c-0.08,19.49-16.01,35.28-35.5,35.2
						c-19.49-0.08-35.28-16.01-35.2-35.5C381.21,271.62,397.14,255.83,416.63,255.91z M416.33,325.19
						c18.71,0.08,33.99-15.07,34.08-33.78s-15.07-33.99-33.78-34.08c-18.71-0.08-33.99,15.07-34.08,33.78
						S397.62,325.11,416.33,325.19z"/>
				</g>
			</g>
			<g class="st1">
				<g>
					<path class="st2" d="M415.05,258.37c18.13,0.08,32.82,14.89,32.74,33.02c-0.08,18.13-14.89,32.82-33.02,32.74
						c-18.13-0.08-32.82-14.89-32.74-33.02C382.1,272.98,396.92,258.29,415.05,258.37z M414.77,322.71
						c17.35,0.08,31.52-13.98,31.6-31.32c0.08-17.35-13.98-31.52-31.32-31.6c-17.35-0.08-31.52,13.98-31.6,31.32
						C383.37,308.46,397.42,322.64,414.77,322.71z"/>
				</g>
			</g>
			<g class="st1">
				<g>
					<path class="st2" d="M417.13,253.69c21.51,0.09,38.94,17.67,38.84,39.18c-0.09,21.51-17.67,38.94-39.18,38.84
						s-38.94-17.67-38.84-39.18C378.04,271.02,395.62,253.59,417.13,253.69z M416.79,330.29c20.73,0.09,37.66-16.7,37.75-37.43
						c0.09-20.73-16.7-37.66-37.43-37.75c-20.73-0.09-37.66,16.7-37.75,37.43S396.07,330.2,416.79,330.29z"/>
				</g>
			</g>
			<g class="st1">
				<g>
					<path class="st2" d="M414.16,249.15c23.55,0.1,42.63,19.35,42.53,42.9c-0.1,23.55-19.35,42.63-42.9,42.53
						c-23.55-0.1-42.63-19.35-42.53-42.9C371.37,268.13,390.61,249.05,414.16,249.15z M413.8,333.16
						c22.77,0.1,41.37-18.34,41.47-41.11c0.1-22.77-18.34-41.37-41.11-41.47c-22.77-0.1-41.37,18.34-41.47,41.11
						C372.59,314.46,391.03,333.06,413.8,333.16z"/>
				</g>
			</g>
			<g class="st1">
				<g>
					<path class="st2" d="M401.09,220.48c5.73,0.02,11.92,0.71,18.55,2.05c30.57-1.07,64.55,17.36,68.24,72.19l0.01,0.14l-0.04,0.13
						c-9.01,27.99-27.9,62.19-66.71,66.18c-24.56,4.65-48.27-4.7-63.35-25.02c-9.82-13.23-13.49-28.64-8.98-37.56
						c-0.92-33.02,5.84-55.84,20.1-67.84C377.1,223.85,387.89,220.42,401.09,220.48z M419.52,223.95l-0.08-0.02
						c-21.5-4.37-38.2-1.71-49.61,7.9c-13.93,11.73-20.52,34.23-19.59,66.89l0,0.19l-0.09,0.16c-4.4,8.43-0.79,23.33,8.77,36.22
						c14.74,19.87,37.93,29.01,62,24.47c38.05-3.92,56.63-37.52,65.53-65.09c-3.68-53.76-36.95-71.81-66.85-70.73L419.52,223.95z"/>
				</g>
			</g>
			<g>
				<path class="st2" d="M490.55,304.64c-1.89,7.68-3.83,15.53-7.84,22.41c-2.11,3.61-4.81,6.64-7.88,9.45
					c-2.92,2.67-5.91,5.25-8.24,8.48c-2.34,3.24-4.11,6.93-6.98,9.76c-2.98,2.95-6.99,4.4-10.88,5.73
					c-8.39,2.88-17.02,5.12-25.81,6.37c-16.34,2.32-33.48,0.98-48.39-6.5c-12.64-6.34-23.58-16.84-28.45-30.33
					c-3.08-8.52-3.84-17.72-4.97-26.64c-0.59-4.66-1.22-9.31-1.77-13.98c-0.52-4.36-0.9-8.8-0.37-13.18
					c1.05-8.53,6.65-15.08,10.25-22.59c3.05-6.36,4.34-13.41,7.55-19.69c1.68-3.28,3.94-6.24,7.03-8.3
					c3.55-2.36,7.73-3.72,11.73-5.1c8.22-2.83,16.67-5,25.27-6.29c16.54-2.48,33.95-1.59,49.58,4.71
					c13.05,5.27,24.87,14.25,32.76,25.97c3.88,5.76,6.77,12.17,8.34,18.95c2.09,9.06,1.79,18.46,0.77,27.64
					c-0.51,4.55-1.21,9.07-1.91,13.59c-0.13,0.86,1.18,1.23,1.31,0.37c2.7-17.35,5.1-35.4-2.21-51.99
					c-5.78-13.11-16.35-23.79-28.65-30.94c-14.16-8.23-30.6-11.43-46.87-10.88c-8.98,0.31-17.92,1.71-26.63,3.92
					c-4.42,1.12-8.79,2.45-13.09,3.96c-4,1.41-8.21,2.81-11.69,5.31c-5.82,4.18-8.37,11.03-10.55,17.57
					c-1.21,3.61-2.35,7.27-4.02,10.71c-1.84,3.79-4.2,7.3-6.21,11c-1.97,3.63-3.5,7.42-4.06,11.54c-0.63,4.64-0.23,9.33,0.33,13.96
					c1.13,9.42,2.16,18.92,3.7,28.28c1.31,8.01,3.65,15.7,8.08,22.56c3.89,6.01,8.98,11.17,14.76,15.38
					c12.95,9.42,28.82,13.51,44.71,13.38c9.17-0.08,18.32-1.46,27.2-3.7c4.52-1.13,8.98-2.49,13.37-4.02
					c3.72-1.3,7.49-2.77,10.41-5.51c2.92-2.73,4.75-6.34,6.99-9.6c2.51-3.66,5.87-6.47,9.1-9.46c6.03-5.59,9.78-12.46,12.32-20.22
					c1.26-3.86,2.25-7.81,3.22-11.75C492.07,304.15,490.76,303.78,490.55,304.64L490.55,304.64z"/>
			</g>
			<g>
				<path class="st2" d="M499.32,292.93c2.34-8.94,4.74-18.02,5.32-27.29c0.51-8.18-0.82-16.2-3.95-23.78
					c-6.6-15.99-19.4-28.94-35.21-35.92c-8.48-3.74-17.48-5.51-26.73-5.69c-11.4-0.22-22.91,0.74-34.25,1.84
					c-10.5,1.02-21.18,2.11-31.49,4.4c-8.68,1.92-17.07,5.46-22.64,12.67c-5.23,6.76-7.46,15.25-9.79,23.32
					c-1.2,4.16-2.43,8.33-4.11,12.33c-1.91,4.56-4.53,8.76-6.72,13.18c-2.14,4.33-3.8,8.89-3.96,13.76
					c-0.18,5.5,0.96,11.07,1.69,16.5c0.76,5.66,1.52,11.31,2.28,16.97c0.74,5.49,1.29,11.05,2.31,16.5
					c0.91,4.84,2.67,9.23,5.83,13.04c2.94,3.54,6.63,6.36,10.33,9.04c9.1,6.6,18.22,13.18,27.41,19.66
					c4.18,2.94,8.48,5.75,13.21,7.73c4.65,1.94,9.62,2.96,14.64,3.27c10.44,0.64,20.83-1.59,30.96-3.82
					c5.6-1.24,11.2-2.47,16.8-3.71c4.73-1.04,9.67-1.86,14.04-4.04c7.97-3.97,10.55-12.47,13.33-20.26c1.6-4.48,3.61-8.58,6.33-12.5
					c2.92-4.2,5.99-8.24,8.47-12.72c4.41-7.96,6.81-16.62,6.02-25.75c-0.1-1.2-0.29-2.6-0.55-3.63
					C498.47,296.4,498.92,294.53,499.32,292.93c0.21-0.85-1.1-1.22-1.31-0.37c-0.42,1.67-0.77,3.44-0.54,5.16
					c0.12,0.94,0.39,1.77,0.5,2.74c0.52,4.53,0.35,9.12-0.66,13.57c-2.12,9.29-7.54,16.98-12.95,24.61
					c-2.59,3.66-4.72,7.45-6.31,11.65c-1.49,3.92-2.65,7.98-4.48,11.77c-1.87,3.88-4.49,7.26-8.33,9.34
					c-4.31,2.33-9.32,3.12-14.05,4.16c-10.38,2.29-20.76,4.94-31.28,6.57c-10.05,1.56-20.62,1.85-30.21-2.04
					c-4.71-1.91-9-4.72-13.15-7.63c-4.44-3.12-8.82-6.31-13.23-9.47c-4.42-3.17-8.85-6.34-13.27-9.52
					c-3.81-2.74-7.64-5.56-10.74-9.12c-3.31-3.81-5.07-8.28-5.97-13.21c-0.96-5.28-1.51-10.65-2.23-15.97
					c-0.73-5.47-1.47-10.94-2.2-16.41c-0.74-5.5-1.89-11.13-1.76-16.7c0.22-9.85,6.77-17.76,10.47-26.47
					c3.29-7.73,4.88-16.02,7.73-23.9c2.98-8.21,7.65-15.39,15.55-19.56c8.36-4.41,18.17-5.5,27.39-6.76
					c11.02-1.5,22.09-2.57,33.19-3.21c10.36-0.6,20.96-1.25,31.17,1.01c16.5,3.64,31.47,13.89,40.82,27.97
					c4.63,6.97,8.09,14.96,9.37,23.26c1.24,8.09,0.2,16.28-1.46,24.23c-0.98,4.68-2.17,9.32-3.38,13.95
					C497.78,293.42,499.1,293.78,499.32,292.93z"/>
			</g>
			<g>
				<path class="st2" d="M514.45,279.67c4.09-23.46,1.35-49.38-12.45-69.39c-5.73-8.31-13.27-15.47-22.18-20.27
					c-4.63-2.49-9.59-4.32-14.75-5.37c-6.38-1.3-12.91-1.54-19.39-1.8c-13.81-0.55-27.62-1.1-41.42-1.65
					c-6.9-0.28-13.81-0.63-20.71-0.81c-5.8-0.15-11.58,0.26-16.87,2.84c-4.86,2.37-8.91,6.08-12.71,9.87
					c-3.96,3.95-7.83,7.94-12.03,11.64c-8.18,7.19-17.01,13.9-23.48,22.78c-7.38,10.13-9.6,22.49-12.28,34.46
					c-3.01,13.46-6.22,26.89-8.99,40.4c-2.38,11.58-3.69,24.14,1.66,35.14c2.47,5.07,6.31,9.04,10.95,12.18
					c4.89,3.31,10.27,5.85,15.33,8.89c10.58,6.36,20.15,13.97,29.25,22.29c7.77,7.1,15.68,14.61,25.35,19.06
					c4.76,2.19,9.88,3.52,15.13,3.61c6.34,0.11,12.56-1.47,18.61-3.19c6.33-1.8,12.62-3.58,19.13-4.67
					c6.75-1.13,13.6-1.66,20.45-1.62c6.03,0.04,12.32,1.14,18.28-0.24c5.09-1.17,9.14-4.53,12.1-8.74c3.41-4.85,5.2-10.57,7.1-16.12
					c1.93-5.62,4.35-10.88,7.4-15.99c5.57-9.33,12.45-18.26,15.3-28.92c1.39-5.19,1.71-10.62,1.13-15.95
					c-0.51-4.74-1.54-9.41-1.62-14.19C512.65,289.08,513.62,284.39,514.45,279.67c0.15-0.86-1.16-1.23-1.31-0.37
					c-0.8,4.55-1.76,9.08-1.78,13.72c-0.02,4.56,0.84,9.01,1.44,13.51c0.72,5.44,0.63,10.93-0.68,16.28
					c-1.26,5.16-3.56,9.97-6.19,14.55c-5.38,9.39-11.95,18.03-15.7,28.28c-3.69,10.11-6.91,23.84-19.03,26.79
					c-6.04,1.47-12.56,0.25-18.7,0.24c-6.24-0.01-12.48,0.47-18.65,1.41c-6.44,0.99-12.69,2.61-18.94,4.41
					c-6.03,1.74-12.16,3.48-18.47,3.65c-10.97,0.29-20.64-5.03-29-11.66c-8.59-6.82-16.19-14.77-24.83-21.53
					c-4.75-3.72-9.7-7.18-14.83-10.36c-4.87-3.02-10.01-5.58-14.9-8.56c-5.01-3.05-9.4-6.79-12.23-12.01
					c-2.66-4.9-3.9-10.5-4.16-16.04c-0.31-6.67,0.76-13.3,2.12-19.81c1.33-6.41,2.83-12.79,4.26-19.18
					c1.48-6.62,2.96-13.23,4.44-19.85c1.35-6.03,2.56-12.13,4.31-18.06c1.69-5.76,4.04-11.25,7.5-16.17
					c3.07-4.37,6.8-8.23,10.71-11.84c4.02-3.72,8.26-7.2,12.38-10.8c3.99-3.48,7.73-7.18,11.45-10.95
					c3.8-3.86,7.75-7.71,12.54-10.34c5.46-2.99,11.49-3.43,17.61-3.25c13.35,0.38,26.69,1.05,40.03,1.59
					c6.71,0.27,13.43,0.54,20.14,0.8c6.48,0.26,13.02,0.41,19.42,1.56c10.27,1.86,19.67,6.77,27.38,13.77
					c17,15.42,24.33,38.97,24.1,61.46c-0.06,6.17-0.69,12.31-1.74,18.38C512.99,280.16,514.3,280.54,514.45,279.67z"/>
			</g>
			<g>
				<path class="st2" d="M522.06,275.99c-2.7,4.49-5.06,9.25-5.21,14.59c-0.16,5.54,1.12,11.21,1.88,16.66
					c1.03,7.4,2.07,14.91,1.39,22.38c-0.67,7.28-3.44,13.58-7.5,19.58c-3.81,5.63-7.91,10.94-10.7,17.19
					c-2.72,6.07-4.59,12.46-6.8,18.73c-2.22,6.28-4.82,12.84-9.17,17.98c-2.46,2.91-5.5,4.85-9.35,5.23
					c-3.5,0.35-7.07-0.06-10.58-0.05c-14.17,0.01-28.34,2.26-41.82,6.59c-6.61,2.12-13.06,4.75-19.28,7.85
					c-6.29,3.14-12.28,7.7-19.15,9.47c-6.84,1.77-13.16-0.94-18.04-5.75c-4.87-4.8-7.83-11-11.18-16.86
					c-3.03-5.3-6.55-10.14-11.36-13.97c-4.06-3.23-8.63-5.74-13.33-7.91c-9.79-4.52-20.29-7.63-29.49-13.35
					c-4.69-2.92-8.95-6.59-12.04-11.19c-3.62-5.39-5.56-11.75-6.23-18.18c-1.5-14.34,2.97-28.17,7.12-41.7
					c2.2-7.19,4.25-14.4,5.52-21.82c1.3-7.58,1.97-15.25,2.34-22.93c0.36-7.38,0.3-14.77,0.64-22.15c0.33-7.12,1.36-14.44,5.18-20.6
					c3.61-5.83,9.15-10.14,14.55-14.22c6.25-4.71,12.57-9.33,18.95-13.85c11.81-8.35,23.95-17.91,38.57-20.41
					c14.84-2.54,29.89,1.21,44.46,3.73c7.51,1.3,15.02,2.18,22.64,2.47c7.77,0.3,15.56,0.23,23.33,0.68
					c13.17,0.76,26.93,3.28,37.79,11.24c10.54,7.72,15.61,19.91,17.42,32.51c0.91,6.3,1.07,12.69,0.92,19.04
					c-0.08,3.64-0.18,7.25,0.07,10.89c0.25,3.8,0.68,7.6,0.87,11.4C524.75,264.7,524.89,271.1,522.06,275.99
					c-0.44,0.76,0.73,1.45,1.17,0.69c2.87-4.96,2.88-11.36,2.63-16.89c-0.17-3.9-0.61-7.78-0.88-11.67
					c-0.26-3.73-0.17-7.42-0.09-11.16c0.29-12.52-0.59-25.69-6.11-37.15c-5.62-11.65-16.01-19.23-28.14-23.12
					c-14.14-4.54-29.12-4.06-43.79-4.48c-8.08-0.23-16.05-0.98-24.02-2.34c-7.43-1.26-14.81-2.79-22.28-3.78
					c-7.26-0.97-14.65-1.41-21.94-0.43c-7.34,0.99-14.16,3.6-20.56,7.27c-6.51,3.73-12.64,8.16-18.78,12.47
					c-6.63,4.66-13.18,9.43-19.65,14.3c-5.35,4.02-10.8,8.13-14.75,13.61c-4.04,5.61-5.67,12.33-6.28,19.12
					c-0.69,7.57-0.47,15.22-0.77,22.81c-0.31,7.92-0.86,15.85-2.08,23.69c-2.4,15.49-8.62,29.94-11.74,45.25
					c-2.57,12.6-2.65,26.76,4.15,38.13c5.73,9.58,15.63,15.04,25.59,19.29c10.08,4.3,20.86,7.69,29.7,14.38
					c5.28,4,9.01,9.19,12.25,14.91c3.26,5.77,6.26,11.79,11.03,16.5c4.43,4.37,10.23,7.38,16.59,6.63
					c7.03-0.82,13.03-5.27,19.12-8.51c13-6.92,27.14-11.66,41.66-14.06c7.23-1.2,14.56-1.8,21.89-1.81c3.67,0,7.42,0.43,11.07,0
					c3.19-0.38,5.96-1.73,8.28-3.93c4.76-4.53,7.62-11.06,9.92-17.1c2.43-6.38,4.27-12.96,6.85-19.29
					c2.73-6.68,6.75-12.35,10.84-18.24c4-5.76,7.13-11.75,8.18-18.76c1.08-7.26,0.34-14.61-0.62-21.84
					c-0.48-3.61-0.99-7.23-1.51-10.84c-0.38-2.69-0.8-5.4-0.83-8.12c-0.05-5.47,2.27-10.25,5.03-14.84
					C523.69,275.93,522.51,275.24,522.06,275.99z"/>
			</g>
			<g>
				<path class="st2" d="M534.95,261.74c-6.41,14.75-9.76,30.82-9.23,46.92c0.52,15.91,5.57,31.62,4.07,47.6
					c-0.71,7.52-3.25,14.51-7.47,20.76c-3.81,5.64-8.55,10.56-13.07,15.61c-4.41,4.93-8.65,10.05-11.74,15.94
					c-3.13,5.98-5.69,13.09-12.32,16c-7.7,3.39-16.96,2.06-25.1,1.77c-4.05-0.14-8.11-0.13-12.12,0.48
					c-3.58,0.54-7.08,1.56-10.48,2.82c-13.57,5.04-25.85,13.75-40.77,14.25c-14.17,0.47-28.02-5.33-37.63-15.73
					c-5.23-5.67-9.38-12.21-14.41-18.04c-4.81-5.56-10.54-10.28-16.96-13.88c-6.02-3.37-12.51-5.4-19.11-7.32
					c-6.31-1.83-12.81-3.68-18.32-7.38c-12.37-8.31-12.93-23.79-12.66-37.28c0.35-17.42,0.74-34.84,1.11-52.26
					c0.18-8.67,0.34-17.34,0.55-26.01c0.2-8.24,0.61-16.61,3.18-24.5c2.43-7.49,6.89-14.09,11.61-20.32
					c4.75-6.26,9.62-12.46,14.69-18.47c4.99-5.91,10.28-11.59,16.15-16.64c6.26-5.38,13.25-9.73,20.39-13.84
					c7.16-4.11,14.34-8.43,22.08-11.36c7.99-3.02,16.31-3.79,24.79-3.79c17.33,0,34.71,0.59,52.03,1.33
					c16.74,0.71,33.73,2.06,49.74,7.36c7.51,2.49,14.4,5.99,20.89,10.52c4.86,3.39,9.74,6.82,14.07,10.86
					c3.75,3.5,6.98,7.5,9.18,12.15c2.61,5.52,3.49,11.47,3.97,17.5c0.41,5.17,1.21,10.32,1.53,15.5c0.26,4.13-0.24,8.1-1.4,12.06
					c-0.8,2.72-1.79,5.38-2.84,8.02c-0.73,1.84-1.48,3.68-2.28,5.5C536.47,259.23,535.56,260.4,534.95,261.74
					c-0.36,0.79,0.81,1.49,1.17,0.69c0.61-1.33,1.53-2.51,2.11-3.84c0.78-1.78,1.52-3.58,2.25-5.39c1.15-2.87,2.25-5.78,3.11-8.76
					c1.14-3.98,1.61-7.99,1.36-12.12c-0.33-5.34-1.15-10.64-1.57-15.97c-0.46-5.89-1.4-11.69-3.84-17.11
					c-4.63-10.29-14-17.1-22.97-23.38c-6.37-4.46-12.98-8.11-20.32-10.72c-7.91-2.81-16.18-4.59-24.48-5.78
					c-17.33-2.48-34.97-2.66-52.45-3.12c-8.86-0.23-17.73-0.48-26.6-0.5c-8.31-0.02-16.58,0.58-24.47,3.38
					c-7.83,2.78-15.04,7.04-22.23,11.15c-7.13,4.07-14.18,8.32-20.53,13.55c-12.14,10-21.82,22.68-31.37,35.07
					c-4.83,6.27-9.48,12.81-12.28,20.27c-2.9,7.7-3.58,16.01-3.84,24.17c-0.58,17.71-0.77,35.44-1.15,53.16
					c-0.19,9.11-0.39,18.22-0.58,27.33c-0.14,6.9-0.18,13.92,1.36,20.69c1.47,6.46,4.6,12.43,9.82,16.63
					c5.06,4.07,11.29,6.26,17.44,8.11c6.87,2.07,13.81,3.84,20.23,7.14c6.86,3.53,12.99,8.33,18.09,14.12
					c5.15,5.84,9.33,12.47,14.57,18.24c4.75,5.23,10.46,9.42,16.94,12.24c6.29,2.74,13.12,4.23,19.99,4.28
					c7.25,0.06,14.2-1.67,20.89-4.39c6.94-2.83,13.51-6.47,20.47-9.25c3.51-1.4,7.12-2.58,10.84-3.26
					c4.16-0.77,8.39-0.82,12.61-0.68c8.14,0.26,16.92,1.44,24.78-1.31c6.93-2.43,10.12-8.59,13.19-14.77
					c3.13-6.3,7.18-11.76,11.83-17.01c4.48-5.07,9.22-9.95,13.17-15.46c4.23-5.91,7.15-12.48,8.26-19.69
					c1.22-7.93,0.53-15.98-0.51-23.88c-1.09-8.25-2.63-16.47-3.07-24.8c-0.45-8.34,0.15-16.73,1.71-24.93
					c1.53-8.04,3.98-15.9,7.24-23.41C536.47,261.63,535.3,260.93,534.95,261.74z"/>
			</g>
			<g>
				<path class="st2" d="M554.47,208.19c0.06,20.85-6.58,41.2-4.02,62.12c2.3,18.8,9.57,36.59,11.85,55.38
					c1.11,9.13,0.85,18.47-1.97,27.29c-2.86,8.95-8.21,16.78-13.52,24.43c-5.08,7.31-10.01,14.61-13.64,22.76
					c-3.34,7.49-5.95,15.28-9.33,22.76c-3.28,7.26-7.35,14.3-13.38,19.63c-6.48,5.73-14.67,8.76-23.12,10.1
					c-8.83,1.4-17.84,1.17-26.75,1.1c-8.85-0.07-17.64,0.1-26.39,1.55c-9.62,1.59-19.05,4.14-28.65,5.81
					c-9.25,1.61-18.93,2.43-28.11-0.07c-17.49-4.76-26.4-21.61-41.2-30.63c-13.72-8.35-30.29-9.67-45.83-11.87
					c-15.63-2.21-32.33-5.43-43.62-17.45c-11.38-12.12-14.51-29.68-13.61-45.76c1.13-19.96,8.64-38.87,12.65-58.31
					c2.05-9.93,2.72-19.86,2.96-29.99c0.24-10.24,0.49-20.65,3.66-30.49c5.05-15.66,16.63-27.91,28.65-38.65
					c6.25-5.58,12.75-10.87,19.09-16.35c6.46-5.58,12.56-11.44,18.41-17.65c6.37-6.76,12.82-13.67,20.9-18.42
					c8.08-4.75,17.31-6.9,26.6-7.47c18.95-1.17,37.7,3.29,56.63,3.23c20.94-0.07,41.36-5.68,62.24-6.53
					c17.77-0.72,36.54,2.11,50.55,13.89c5.51,4.64,10.22,10.21,13.52,16.64c3.69,7.18,5.47,15.18,5.81,23.22
					C555.14,195.03,554.45,201.62,554.47,208.19c0,0.58,0.91,0.59,0.91,0c-0.03-7.08,0.76-14.18,0.31-21.25
					c-0.49-7.69-2.32-15.29-5.85-22.16c-7.2-14.02-20.6-24.04-35.67-28.15c-18.77-5.12-38.33-2.48-57.24,0.3
					c-10.92,1.6-21.88,3.24-32.93,3.39c-9.72,0.13-19.41-0.96-29.06-1.94c-18.25-1.84-38-3.56-54.7,5.65
					c-8.12,4.48-14.65,11.18-20.96,17.85c-6.01,6.37-12.17,12.48-18.79,18.22c-12.68,11.01-26.36,21.27-36.88,34.5
					c-4.88,6.14-8.98,12.93-11.57,20.36c-3.36,9.62-3.85,19.86-4.1,29.95c-0.26,10.65-0.77,21.1-2.91,31.58
					c-2.12,10.36-5.17,20.5-7.79,30.74c-4.39,17.16-7.34,35.07-2.78,52.53c1.98,7.58,5.42,14.83,10.59,20.77
					c5.08,5.84,11.68,10.05,18.85,12.86c15.4,6.04,32.33,6.2,48.39,9.4c8.03,1.6,16.02,3.95,23.09,8.17
					c7.56,4.51,13.47,11.09,19.77,17.12c6.25,5.99,13.08,11.28,21.53,13.69c8.84,2.53,18.18,1.97,27.16,0.54
					c9.81-1.56,19.41-4.19,29.2-5.9c9.32-1.63,18.64-1.82,28.07-1.75c16.68,0.13,35.25,0.66,48.91-10.55
					c12.89-10.59,17.07-27.72,23.45-42.39c3.62-8.31,8.5-15.77,13.66-23.19c5.26-7.56,10.59-15.25,13.65-24.02
					c6.29-18.03,1.54-37.17-3.09-54.98c-2.48-9.56-5.07-19.14-6.29-28.96c-1.29-10.35-0.49-20.64,0.88-30.94
					c1.39-10.45,3.14-20.88,3.11-31.45C555.38,207.61,554.47,207.6,554.47,208.19z"/>
			</g>
			<g>
				<path class="st2" d="M236.49,246.06c5.8-4.06,11.55-8.6,14.98-14.94c3.32-6.14,4.64-13.26,6.43-19.95
					c5.1-19.1,9.6-40.25,25.55-53.52c8.18-6.8,18-11.19,26.66-17.3c7.96-5.62,14.66-12.72,21.19-19.9
					c6.6-7.25,13.12-14.69,20.86-20.76c4.16-3.26,8.74-6.39,13.78-8.11c6.16-2.09,11.92-0.92,17.73,1.64
					c10.09,4.43,20.03,8.83,30.57,12.13c10.66,3.34,21.58,5.86,32.63,7.54c10.96,1.66,22.03,2.51,33.11,2.48
					c5.74-0.01,11.49-0.26,17.21-0.74c5.34-0.45,10.65-1.2,16.01-1.37c5.8-0.19,11.77,0.31,17.07,2.88
					c4.25,2.06,7.79,5.31,10.51,9.14c5.98,8.43,7.92,18.68,9.17,28.73c1.27,10.28,2.28,20.6,6.62,30.14
					c3.3,7.26,8.03,13.77,13.24,19.78c10.92,12.6,24.06,23.11,34.55,36.09c5.09,6.31,9.51,13.28,12.12,21
					c3.39,10.02,3.36,20.74,0.88,30.96c-5.38,22.15-20.62,39.53-35.11,56.37c-7.23,8.41-14.32,16.93-20.45,26.19
					c-6.3,9.51-11.75,19.55-16.77,29.78c-4.85,9.87-9.13,20-13.83,29.94c-4.28,9.03-9.33,18.02-17.1,24.51
					c-8.43,7.04-19.28,10.09-29.76,12.58c-11.81,2.81-23.69,5.35-35.58,7.75c-12,2.42-24.07,4.97-36.23,6.46
					c-11.28,1.38-22.58,1.28-33.65-1.53c-19.82-5.03-37.07-16.75-53.99-27.75c-8.72-5.67-17.49-11.29-26.72-16.11
					c-10.32-5.39-21.04-9.95-31.63-14.77c-18.99-8.63-38.13-18.48-52.04-34.48c-6.68-7.69-11.79-16.68-14.24-26.61
					c-2.73-11.08-2.16-22.67,0.24-33.75c2.39-11.08,6.48-21.73,11.18-32.02c2.23-4.89,4.41-9.72,6.17-14.81
					c1.75-5.06,3.28-10.19,5.08-15.22C225.74,260.6,229.41,251.2,236.49,246.06c0.7-0.51,0.03-1.7-0.68-1.18
					c-6.75,4.9-10.46,13.31-13.33,20.86c-1.99,5.23-3.59,10.58-5.37,15.88c-1.92,5.7-4.29,11.1-6.77,16.56
					c-9.04,19.85-16.49,42.34-11.9,64.34c4.11,19.67,18.1,35,34.2,46.15c18.93,13.11,40.92,20.63,61.37,30.9
					c19.03,9.56,35.95,22.57,54.45,33.05c8.71,4.93,17.84,9.28,27.49,12.04c10.77,3.08,21.83,3.74,32.96,2.66
					c12.16-1.18,24.2-3.73,36.17-6.1c12.32-2.44,24.6-5.07,36.84-7.9c10.38-2.4,21.14-5.04,30.02-11.21
					c8.23-5.72,13.88-14.15,18.37-22.96c5-9.82,9.14-20.07,13.9-30.01c5.03-10.51,10.44-20.86,16.69-30.7
					c12.41-19.52,29.4-35.35,42.63-54.23c12.05-17.2,20.87-39.04,15.26-60.2c-4.25-16.01-15.87-28.54-27.33-39.9
					c-11.95-11.84-25.18-23.39-32.8-38.69c-5.02-10.09-6.06-21.12-7.45-32.15c-1.22-9.65-3.13-19.4-8.57-27.65
					c-5.4-8.19-13.57-12.83-23.33-13.59c-5.55-0.43-11.12,0.17-16.64,0.74c-5.81,0.6-11.62,1.03-17.45,1.19
					c-23.25,0.62-46.58-2.58-68.83-9.34c-5.53-1.68-10.99-3.58-16.37-5.7c-5.55-2.18-10.88-4.79-16.35-7.14
					c-4.71-2.03-9.54-3.3-14.67-2.38c-5.11,0.92-9.78,3.61-13.99,6.53c-16.52,11.43-27.18,29.17-43.02,41.38
					c-8.57,6.61-18.58,11.05-27.2,17.58c-7.93,6.01-13.71,13.91-17.79,22.94c-4.14,9.14-6.67,18.89-9.23,28.55
					c-1.99,7.5-3.41,15.61-6.76,22.66c-3.25,6.83-9.13,11.6-15.2,15.86C235.09,245.37,235.77,246.56,236.49,246.06z"/>
			</g>
			<g>
				<path class="st2" d="M209.93,257.75c16.35-15.1,29.69-33.43,38.47-53.92c8.19-19.14,10.98-39.91,18.1-59.4
					c3.58-9.8,8.45-19.26,15.65-26.92c7.1-7.55,16.13-12.77,25.4-17.2c9.51-4.54,19.38-8.33,28.65-13.35
					c4.43-2.4,8.68-5.09,12.64-8.21c4.29-3.37,8.28-7.14,12.86-10.11c4.95-3.22,10.33-5.05,16.3-4.69
					c6.14,0.37,12.17,2.43,17.82,4.73c10.93,4.44,21.14,10.64,32.49,14.05c24.02,7.22,49.36-0.29,73.65,4.79
					c20.23,4.23,38.61,17.06,49.6,34.56c6.27,9.98,9.37,21.29,12.37,32.58c3,11.27,6.42,22.27,12.34,32.4
					c5.48,9.37,12.52,17.68,20.68,24.81c7.55,6.59,15.78,12.39,23.01,19.34c7.79,7.49,14.06,16.5,15.38,27.48
					c1.48,12.35-2.78,24.61-7.54,35.81c-5.17,12.17-10.83,24.14-16.28,36.19c-5.57,12.32-11.13,24.63-16.7,36.95
					c-5.49,12.16-10.99,24.31-16.48,36.47c-4.74,10.49-9.57,21.09-16.5,30.36c-7.24,9.69-16.88,16.84-27.25,22.88
					c-10.12,5.9-20.61,11.28-31.07,16.54c-11.19,5.63-22.63,10.85-34.56,14.74c-12.39,4.05-25.14,6.2-38.07,7.63
					c-12.64,1.39-25.43,2.96-38.16,2.7c-13.17-0.28-25.5-3.63-37.62-8.6c-12.35-5.06-24.47-10.73-36.62-16.26
					c-11.76-5.35-23.49-10.75-35.18-16.26c-22.26-10.48-44.49-21.57-64.04-36.66c-9.42-7.27-18.24-15.51-25.39-25.06
					c-6.66-8.89-12.75-18.71-17.77-28.63c-4.37-8.63-7.42-17.88-7.5-27.63c-0.09-10.51,3.38-20.07,6.46-29.95
					c1.97-6.32,3.54-12.82,5.96-18.99c2.23-5.69,5.65-10.65,9.68-15.21c2.74-3.11,5.66-6.05,8.63-8.93
					c1.88-1.83,3.76-3.98,5.86-5.55C206.8,260.06,208.45,259.07,209.93,257.75c0.66-0.58-0.3-1.55-0.96-0.97
					c-1.46,1.29-3.09,2.26-4.63,3.42c-2.4,1.82-4.55,4.26-6.7,6.36c-3.06,3-6.08,6.06-8.86,9.32c-3.78,4.44-6.91,9.24-9.05,14.68
					c-2.5,6.36-4.1,13.06-6.14,19.56c-3.14,10.01-6.55,19.74-6.33,30.38c0.19,9.18,2.93,17.95,6.92,26.16
					c4.88,10.03,11.03,19.83,17.57,28.85c14.19,19.58,34.75,33.89,55.58,45.63c22.71,12.81,46.75,23.34,70.47,34.12
					c11.87,5.39,23.72,10.89,35.76,15.9c11.74,4.89,23.74,8.47,36.51,9.05c13.32,0.61,26.73-1.08,39.95-2.51
					c12.78-1.38,25.43-3.38,37.71-7.26c11.81-3.72,23.15-8.77,34.23-14.26c11.01-5.46,22-11.13,32.64-17.27
					c9.94-5.74,19.38-12.42,26.62-21.43c7.29-9.07,12.36-19.62,17.15-30.15c11.38-25.01,22.63-50.08,33.95-75.12
					c5.58-12.36,11.39-24.64,16.7-37.11c4.65-10.92,8.79-22.76,7.85-34.81c-1.69-21.57-20.34-33.9-35.52-46.5
					c-8.84-7.34-16.64-15.64-22.7-25.46c-6.53-10.57-10.22-22.12-13.39-34.05c-3-11.28-6.1-22.61-12.32-32.61
					c-5.23-8.4-12.11-15.72-20.05-21.61c-8.11-6.02-17.38-10.54-27.17-13.07c-11.91-3.09-24.29-2.87-36.48-2.53
					c-13.02,0.37-26.31,0.88-39-2.61c-11.69-3.22-22.15-9.57-33.29-14.19c-10.51-4.36-22.22-7.62-32.88-2
					c-4.49,2.37-8.39,5.7-12.27,8.93c-4.27,3.55-8.66,6.83-13.47,9.62c-18.1,10.5-39.77,15.47-55.16,30.33
					c-15.14,14.61-20.47,35.72-25.52,55.42c-2.71,10.56-5.46,21.11-9.6,31.22c-4.36,10.66-10.01,20.8-16.66,30.2
					c-6.54,9.24-14.09,17.72-22.4,25.4C208.33,257.38,209.29,258.34,209.93,257.75z"/>
			</g>
			<g>
				<path class="st2" d="M163.11,291.09c14.69-25.34,37.03-45.51,49.7-72.12c10.62-22.3,15.13-46.79,22.84-70.11
					c3.81-11.53,8.45-22.88,15.13-33.07c7.37-11.26,17.17-20.16,28.74-26.97c12.2-7.18,25.45-12.28,38-18.79
					c11.69-6.06,22.05-13.91,32.34-22.05c10.04-7.93,20.19-16.05,31.84-21.52c12.54-5.89,26.23-7.59,39.8-4.66
					c27.25,5.89,49.17,25.25,74.11,36.58c22.15,10.07,46.6,14.29,68.27,25.52c10.84,5.62,20.69,13.25,27.35,23.62
					c7.77,12.1,10.58,26.42,14.53,40.03c3.41,11.75,8.08,22.67,15.62,32.38c6.76,8.7,14.95,16.16,23.43,23.13
					c17.46,14.37,37.27,27.01,50.91,45.4c7.48,10.09,12.46,21.81,13.61,34.38c1.28,14.06-1.93,28.18-7.47,41.05
					c-11.87,27.53-34.04,47.94-54.89,68.69c-10.38,10.33-20.58,20.93-29.22,32.78c-8.45,11.57-15.22,24.25-23.26,36.09
					c-7.86,11.57-17.08,21.91-28.88,29.56c-10.95,7.11-23.24,11.85-35.76,15.36c-25.76,7.21-52.58,9.51-78.51,15.98
					c-15.1,3.77-29.8,9.4-45.29,11.51c-13.91,1.9-27.68,0.07-40.76-4.93c-25.21-9.63-45.85-28.06-67.94-42.99
					c-12.29-8.3-25.28-15.19-38.87-21.09c-14.05-6.1-28.43-11.4-42.47-17.52c-24.93-10.85-50.37-25.36-65.4-48.84
					c-7.23-11.29-11.66-24.69-12.7-38.06c-1.11-14.41,2.18-28.67,8.54-41.58C151.19,309.17,157.71,300.42,163.11,291.09
					c0.29-0.51-0.49-0.97-0.78-0.46c-5.9,10.2-13.07,19.73-17.97,30.48c-5.62,12.32-8.43,25.79-7.39,39.33
					c0.98,12.68,4.97,25.43,11.49,36.36c6.63,11.11,15.88,20.44,26.12,28.25c23.82,18.17,52.51,27.47,79.77,39.02
					c14.32,6.07,28.11,13.04,41.06,21.68c11.49,7.67,22.44,16.12,33.79,23.99c21.95,15.23,46.33,28.25,73.9,25.38
					c15.77-1.64,30.7-7.28,45.95-11.26c13.23-3.45,26.72-5.74,40.18-8.08c25.79-4.49,52.84-8.99,75.41-23.1
					c11.45-7.15,20.71-16.75,28.49-27.72c8.45-11.92,15.31-24.89,23.72-36.83c17.83-25.33,42.6-44.51,62.68-67.88
					c17.64-20.52,32.32-46.85,30.87-74.74c-2.63-50.72-58.31-69.67-86.6-103.97c-8.58-10.4-13.75-22.21-17.44-35.11
					c-3.84-13.41-6.73-27.46-14.37-39.36c-13.24-20.63-37.37-29.23-59.59-36.45c-12.23-3.98-24.62-7.69-36.35-13.02
					c-12.95-5.89-24.93-13.64-37.24-20.72c-11.65-6.7-23.85-13.09-37.09-15.95c-12.62-2.73-25.47-1.59-37.39,3.37
					c-11.69,4.87-21.88,12.61-31.77,20.39c-10.88,8.55-21.62,17.18-33.88,23.7c-12.76,6.78-26.33,11.94-38.84,19.18
					c-11.09,6.42-20.72,14.68-28.12,25.19c-14.3,20.31-19.86,45.22-26.58,68.72c-3.56,12.46-7.42,24.92-12.97,36.66
					c-6.34,13.42-15.2,25.33-24.31,36.96c-9,11.49-18.22,22.86-25.56,35.52C162.03,291.13,162.81,291.59,163.11,291.09z"/>
			</g>
		</g>
	</g>
</g>
</svg>
