<svg xmlns="http://www.w3.org/2000/svg" viewBox="0 0 841.9 595.3"><style type="text/css">  
	.st0{opacity:0.8;clip-path:url(#SVGID_2_);}
	.st1{opacity:0.8;}
	.st2{fill:#95D4D1;}
</style><defs><rect x="123.9" y="0.6" width="594" height="594"/></defs><clipPath><use xlink:href="#SVGID_1_"/></clipPath><g class="st0"><g class="st1"><path class="st2" d="M418 237.9c29.3 0.1 53 24 52.8 53.3 -0.1 29.3-24 53-53.3 52.8 -29.2-0.1-52.9-24-52.8-53.3C364.8 261.5 388.7 237.8 418 237.9zM417.5 342.6c28.5 0.1 51.7-22.9 51.9-51.4 0.1-28.5-22.9-51.7-51.4-51.9 -28.5-0.1-51.7 22.9-51.9 51.4C366 319.2 389.1 342.5 417.5 342.6z"/></g><g class="st1"><path class="st2" d="M415.6 241.6c27.2 0.1 49.2 22.3 49.1 49.5 -0.1 27.2-22.3 49.2-49.5 49.1 -27.2-0.1-49.2-22.3-49.1-49.5C366.2 263.5 388.4 241.5 415.6 241.6zM415.2 338.8c26.4 0.1 48-21.3 48.1-47.7 0.1-26.4-21.3-48-47.7-48.1 -26.4-0.1-48 21.3-48.1 47.7C367.4 317.2 388.8 338.7 415.2 338.8z"/></g><circle class="st2" cx="416.3" cy="291.9" r="29.6"/><g class="st1"><path class="st2" d="M418.7 234.5c32.3 0.1 58.5 26.5 58.3 58.8s-26.5 58.5-58.8 58.3c-32.3-0.1-58.5-26.5-58.3-58.8C360 260.6 386.4 234.4 418.7 234.5zM418.2 350.3c31.5 0.1 57.3-25.4 57.4-56.9s-25.4-57.3-56.9-57.4c-31.5-0.1-57.3 25.4-57.4 56.9S386.7 350.2 418.2 350.3z"/></g><g class="st1"><path class="st2" d="M414.3 227.7c35.4 0.2 64.1 29.1 63.9 64.5 -0.1 35.4-29.1 64.1-64.5 63.9 -35.4-0.1-64.1-29.1-63.9-64.5C350 256.2 378.9 227.5 414.3 227.7zM413.7 354.6c34.6 0.2 62.9-27.9 63-62.5 0.2-34.6-27.9-62.9-62.5-63 -34.6-0.1-62.9 27.9-63 62.5C351.1 326.2 379.1 354.5 413.7 354.6z"/></g><g class="st1"><path class="st2" d="M416.6 255.9c19.5 0.1 35.3 16 35.2 35.5 -0.1 19.5-16 35.3-35.5 35.2 -19.5-0.1-35.3-16-35.2-35.5C381.2 271.6 397.1 255.8 416.6 255.9zM416.3 325.2c18.7 0.1 34-15.1 34.1-33.8s-15.1-34-33.8-34.1c-18.7-0.1-34 15.1-34.1 33.8S397.6 325.1 416.3 325.2z"/></g><g class="st1"><path class="st2" d="M415.1 258.4c18.1 0.1 32.8 14.9 32.7 33 -0.1 18.1-14.9 32.8-33 32.7 -18.1-0.1-32.8-14.9-32.7-33C382.1 273 396.9 258.3 415.1 258.4zM414.8 322.7c17.4 0.1 31.5-14 31.6-31.3 0.1-17.3-14-31.5-31.3-31.6 -17.3-0.1-31.5 14-31.6 31.3C383.4 308.5 397.4 322.6 414.8 322.7z"/></g><g class="st1"><path class="st2" d="M417.1 253.7c21.5 0.1 38.9 17.7 38.8 39.2 -0.1 21.5-17.7 38.9-39.2 38.8s-38.9-17.7-38.8-39.2C378 271 395.6 253.6 417.1 253.7zM416.8 330.3c20.7 0.1 37.7-16.7 37.8-37.4 0.1-20.7-16.7-37.7-37.4-37.7 -20.7-0.1-37.7 16.7-37.7 37.4S396.1 330.2 416.8 330.3z"/></g><g class="st1"><path class="st2" d="M414.2 249.2c23.6 0.1 42.6 19.4 42.5 42.9 -0.1 23.6-19.3 42.6-42.9 42.5 -23.5-0.1-42.6-19.3-42.5-42.9C371.4 268.1 390.6 249.1 414.2 249.2zM413.8 333.2c22.8 0.1 41.4-18.3 41.5-41.1 0.1-22.8-18.3-41.4-41.1-41.5 -22.8-0.1-41.4 18.3-41.5 41.1C372.6 314.5 391 333.1 413.8 333.2z"/></g><g class="st1"><path class="st2" d="M401.1 220.5c5.7 0 11.9 0.7 18.6 2.1 30.6-1.1 64.6 17.4 68.2 72.2l0 0.1 0 0.1c-9 28-27.9 62.2-66.7 66.2 -24.6 4.7-48.3-4.7-63.3-25 -9.8-13.2-13.5-28.6-9-37.6 -0.9-33 5.8-55.8 20.1-67.8C377.1 223.9 387.9 220.4 401.1 220.5zM419.5 224l-0.1 0c-21.5-4.4-38.2-1.7-49.6 7.9 -13.9 11.7-20.5 34.2-19.6 66.9l0 0.2 -0.1 0.2c-4.4 8.4-0.8 23.3 8.8 36.2 14.7 19.9 37.9 29 62 24.5 38.1-3.9 56.6-37.5 65.5-65.1 -3.7-53.8-36.9-71.8-66.8-70.7L419.5 224z"/></g><path class="st2" d="M490.6 304.6c-1.9 7.7-3.8 15.5-7.8 22.4 -2.1 3.6-4.8 6.6-7.9 9.5 -2.9 2.7-5.9 5.3-8.2 8.5 -2.3 3.2-4.1 6.9-7 9.8 -3 3-7 4.4-10.9 5.7 -8.4 2.9-17 5.1-25.8 6.4 -16.3 2.3-33.5 1-48.4-6.5 -12.6-6.3-23.6-16.8-28.4-30.3 -3.1-8.5-3.8-17.7-5-26.6 -0.6-4.7-1.2-9.3-1.8-14 -0.5-4.4-0.9-8.8-0.4-13.2 1.1-8.5 6.7-15.1 10.3-22.6 3.1-6.4 4.3-13.4 7.6-19.7 1.7-3.3 3.9-6.2 7-8.3 3.6-2.4 7.7-3.7 11.7-5.1 8.2-2.8 16.7-5 25.3-6.3 16.5-2.5 34-1.6 49.6 4.7 13.1 5.3 24.9 14.3 32.8 26 3.9 5.8 6.8 12.2 8.3 19 2.1 9.1 1.8 18.5 0.8 27.6 -0.5 4.6-1.2 9.1-1.9 13.6 -0.1 0.9 1.2 1.2 1.3 0.4 2.7-17.3 5.1-35.4-2.2-52 -5.8-13.1-16.3-23.8-28.6-30.9 -14.2-8.2-30.6-11.4-46.9-10.9 -9 0.3-17.9 1.7-26.6 3.9 -4.4 1.1-8.8 2.5-13.1 4 -4 1.4-8.2 2.8-11.7 5.3 -5.8 4.2-8.4 11-10.5 17.6 -1.2 3.6-2.3 7.3-4 10.7 -1.8 3.8-4.2 7.3-6.2 11 -2 3.6-3.5 7.4-4.1 11.5 -0.6 4.6-0.2 9.3 0.3 14 1.1 9.4 2.2 18.9 3.7 28.3 1.3 8 3.7 15.7 8.1 22.6 3.9 6 9 11.2 14.8 15.4 13 9.4 28.8 13.5 44.7 13.4 9.2-0.1 18.3-1.5 27.2-3.7 4.5-1.1 9-2.5 13.4-4 3.7-1.3 7.5-2.8 10.4-5.5 2.9-2.7 4.8-6.3 7-9.6 2.5-3.7 5.9-6.5 9.1-9.5 6-5.6 9.8-12.5 12.3-20.2 1.3-3.9 2.3-7.8 3.2-11.7C492.1 304.2 490.8 303.8 490.6 304.6L490.6 304.6z"/><path class="st2" d="M499.3 292.9c2.3-8.9 4.7-18 5.3-27.3 0.5-8.2-0.8-16.2-3.9-23.8 -6.6-16-19.4-28.9-35.2-35.9 -8.5-3.7-17.5-5.5-26.7-5.7 -11.4-0.2-22.9 0.7-34.2 1.8 -10.5 1-21.2 2.1-31.5 4.4 -8.7 1.9-17.1 5.5-22.6 12.7 -5.2 6.8-7.5 15.3-9.8 23.3 -1.2 4.2-2.4 8.3-4.1 12.3 -1.9 4.6-4.5 8.8-6.7 13.2 -2.1 4.3-3.8 8.9-4 13.8 -0.2 5.5 1 11.1 1.7 16.5 0.8 5.7 1.5 11.3 2.3 17 0.7 5.5 1.3 11.1 2.3 16.5 0.9 4.8 2.7 9.2 5.8 13 2.9 3.5 6.6 6.4 10.3 9 9.1 6.6 18.2 13.2 27.4 19.7 4.2 2.9 8.5 5.8 13.2 7.7 4.7 1.9 9.6 3 14.6 3.3 10.4 0.6 20.8-1.6 31-3.8 5.6-1.2 11.2-2.5 16.8-3.7 4.7-1 9.7-1.9 14-4 8-4 10.6-12.5 13.3-20.3 1.6-4.5 3.6-8.6 6.3-12.5 2.9-4.2 6-8.2 8.5-12.7 4.4-8 6.8-16.6 6-25.7 -0.1-1.2-0.3-2.6-0.5-3.6C498.5 296.4 498.9 294.5 499.3 292.9c0.2-0.8-1.1-1.2-1.3-0.4 -0.4 1.7-0.8 3.4-0.5 5.2 0.1 0.9 0.4 1.8 0.5 2.7 0.5 4.5 0.4 9.1-0.7 13.6 -2.1 9.3-7.5 17-12.9 24.6 -2.6 3.7-4.7 7.5-6.3 11.7 -1.5 3.9-2.6 8-4.5 11.8 -1.9 3.9-4.5 7.3-8.3 9.3 -4.3 2.3-9.3 3.1-14 4.2 -10.4 2.3-20.8 4.9-31.3 6.6 -10 1.6-20.6 1.9-30.2-2 -4.7-1.9-9-4.7-13.1-7.6 -4.4-3.1-8.8-6.3-13.2-9.5 -4.4-3.2-8.8-6.3-13.3-9.5 -3.8-2.7-7.6-5.6-10.7-9.1 -3.3-3.8-5.1-8.3-6-13.2 -1-5.3-1.5-10.6-2.2-16 -0.7-5.5-1.5-10.9-2.2-16.4 -0.7-5.5-1.9-11.1-1.8-16.7 0.2-9.8 6.8-17.8 10.5-26.5 3.3-7.7 4.9-16 7.7-23.9 3-8.2 7.7-15.4 15.6-19.6 8.4-4.4 18.2-5.5 27.4-6.8 11-1.5 22.1-2.6 33.2-3.2 10.4-0.6 21-1.2 31.2 1 16.5 3.6 31.5 13.9 40.8 28 4.6 7 8.1 15 9.4 23.3 1.2 8.1 0.2 16.3-1.5 24.2 -1 4.7-2.2 9.3-3.4 14C497.8 293.4 499.1 293.8 499.3 292.9z"/><path class="st2" d="M514.5 279.7c4.1-23.5 1.4-49.4-12.4-69.4 -5.7-8.3-13.3-15.5-22.2-20.3 -4.6-2.5-9.6-4.3-14.7-5.4 -6.4-1.3-12.9-1.5-19.4-1.8 -13.8-0.5-27.6-1.1-41.4-1.6 -6.9-0.3-13.8-0.6-20.7-0.8 -5.8-0.1-11.6 0.3-16.9 2.8 -4.9 2.4-8.9 6.1-12.7 9.9 -4 4-7.8 7.9-12 11.6 -8.2 7.2-17 13.9-23.5 22.8 -7.4 10.1-9.6 22.5-12.3 34.5 -3 13.5-6.2 26.9-9 40.4 -2.4 11.6-3.7 24.1 1.7 35.1 2.5 5.1 6.3 9 11 12.2 4.9 3.3 10.3 5.9 15.3 8.9 10.6 6.4 20.2 14 29.3 22.3 7.8 7.1 15.7 14.6 25.4 19.1 4.8 2.2 9.9 3.5 15.1 3.6 6.3 0.1 12.6-1.5 18.6-3.2 6.3-1.8 12.6-3.6 19.1-4.7 6.8-1.1 13.6-1.7 20.5-1.6 6 0 12.3 1.1 18.3-0.2 5.1-1.2 9.1-4.5 12.1-8.7 3.4-4.8 5.2-10.6 7.1-16.1 1.9-5.6 4.4-10.9 7.4-16 5.6-9.3 12.5-18.3 15.3-28.9 1.4-5.2 1.7-10.6 1.1-15.9 -0.5-4.7-1.5-9.4-1.6-14.2C512.7 289.1 513.6 284.4 514.5 279.7c0.2-0.9-1.2-1.2-1.3-0.4 -0.8 4.6-1.8 9.1-1.8 13.7 0 4.6 0.8 9 1.4 13.5 0.7 5.4 0.6 10.9-0.7 16.3 -1.3 5.2-3.6 10-6.2 14.6 -5.4 9.4-11.9 18-15.7 28.3 -3.7 10.1-6.9 23.8-19 26.8 -6 1.5-12.6 0.3-18.7 0.2 -6.2 0-12.5 0.5-18.6 1.4 -6.4 1-12.7 2.6-18.9 4.4 -6 1.7-12.2 3.5-18.5 3.7 -11 0.3-20.6-5-29-11.7 -8.6-6.8-16.2-14.8-24.8-21.5 -4.7-3.7-9.7-7.2-14.8-10.4 -4.9-3-10-5.6-14.9-8.6 -5-3-9.4-6.8-12.2-12 -2.7-4.9-3.9-10.5-4.2-16 -0.3-6.7 0.8-13.3 2.1-19.8 1.3-6.4 2.8-12.8 4.3-19.2 1.5-6.6 3-13.2 4.4-19.8 1.4-6 2.6-12.1 4.3-18.1 1.7-5.8 4-11.2 7.5-16.2 3.1-4.4 6.8-8.2 10.7-11.8 4-3.7 8.3-7.2 12.4-10.8 4-3.5 7.7-7.2 11.5-10.9 3.8-3.9 7.8-7.7 12.5-10.3 5.5-3 11.5-3.4 17.6-3.2 13.4 0.4 26.7 1.1 40 1.6 6.7 0.3 13.4 0.5 20.1 0.8 6.5 0.3 13 0.4 19.4 1.6 10.3 1.9 19.7 6.8 27.4 13.8 17 15.4 24.3 39 24.1 61.5 -0.1 6.2-0.7 12.3-1.7 18.4C513 280.2 514.3 280.5 514.5 279.7z"/><path class="st2" d="M522.1 276c-2.7 4.5-5.1 9.3-5.2 14.6 -0.2 5.5 1.1 11.2 1.9 16.7 1 7.4 2.1 14.9 1.4 22.4 -0.7 7.3-3.4 13.6-7.5 19.6 -3.8 5.6-7.9 10.9-10.7 17.2 -2.7 6.1-4.6 12.5-6.8 18.7 -2.2 6.3-4.8 12.8-9.2 18 -2.5 2.9-5.5 4.9-9.3 5.2 -3.5 0.4-7.1-0.1-10.6 0 -14.2 0-28.3 2.3-41.8 6.6 -6.6 2.1-13.1 4.8-19.3 7.9 -6.3 3.1-12.3 7.7-19.1 9.5 -6.8 1.8-13.2-0.9-18-5.7 -4.9-4.8-7.8-11-11.2-16.9 -3-5.3-6.5-10.1-11.4-14 -4.1-3.2-8.6-5.7-13.3-7.9 -9.8-4.5-20.3-7.6-29.5-13.3 -4.7-2.9-8.9-6.6-12-11.2 -3.6-5.4-5.6-11.7-6.2-18.2 -1.5-14.3 3-28.2 7.1-41.7 2.2-7.2 4.3-14.4 5.5-21.8 1.3-7.6 2-15.2 2.3-22.9 0.4-7.4 0.3-14.8 0.6-22.1 0.3-7.1 1.4-14.4 5.2-20.6 3.6-5.8 9.2-10.1 14.6-14.2 6.3-4.7 12.6-9.3 19-13.8 11.8-8.3 24-17.9 38.6-20.4 14.8-2.5 29.9 1.2 44.5 3.7 7.5 1.3 15 2.2 22.6 2.5 7.8 0.3 15.6 0.2 23.3 0.7 13.2 0.8 26.9 3.3 37.8 11.2 10.5 7.7 15.6 19.9 17.4 32.5 0.9 6.3 1.1 12.7 0.9 19 -0.1 3.6-0.2 7.3 0.1 10.9 0.3 3.8 0.7 7.6 0.9 11.4C524.8 264.7 524.9 271.1 522.1 276c-0.4 0.8 0.7 1.5 1.2 0.7 2.9-5 2.9-11.4 2.6-16.9 -0.2-3.9-0.6-7.8-0.9-11.7 -0.3-3.7-0.2-7.4-0.1-11.2 0.3-12.5-0.6-25.7-6.1-37.1 -5.6-11.6-16-19.2-28.1-23.1 -14.1-4.5-29.1-4.1-43.8-4.5 -8.1-0.2-16-1-24-2.3 -7.4-1.3-14.8-2.8-22.3-3.8 -7.3-1-14.6-1.4-21.9-0.4 -7.3 1-14.2 3.6-20.6 7.3 -6.5 3.7-12.6 8.2-18.8 12.5 -6.6 4.7-13.2 9.4-19.6 14.3 -5.3 4-10.8 8.1-14.7 13.6 -4 5.6-5.7 12.3-6.3 19.1 -0.7 7.6-0.5 15.2-0.8 22.8 -0.3 7.9-0.9 15.9-2.1 23.7 -2.4 15.5-8.6 29.9-11.7 45.3 -2.6 12.6-2.6 26.8 4.2 38.1 5.7 9.6 15.6 15 25.6 19.3 10.1 4.3 20.9 7.7 29.7 14.4 5.3 4 9 9.2 12.3 14.9 3.3 5.8 6.3 11.8 11 16.5 4.4 4.4 10.2 7.4 16.6 6.6 7-0.8 13-5.3 19.1-8.5 13-6.9 27.1-11.7 41.7-14.1 7.2-1.2 14.6-1.8 21.9-1.8 3.7 0 7.4 0.4 11.1 0 3.2-0.4 6-1.7 8.3-3.9 4.8-4.5 7.6-11.1 9.9-17.1 2.4-6.4 4.3-13 6.9-19.3 2.7-6.7 6.8-12.3 10.8-18.2 4-5.8 7.1-11.7 8.2-18.8 1.1-7.3 0.3-14.6-0.6-21.8 -0.5-3.6-1-7.2-1.5-10.8 -0.4-2.7-0.8-5.4-0.8-8.1 0-5.5 2.3-10.2 5-14.8C523.7 275.9 522.5 275.2 522.1 276z"/><path class="st2" d="M535 261.7c-6.4 14.8-9.8 30.8-9.2 46.9 0.5 15.9 5.6 31.6 4.1 47.6 -0.7 7.5-3.2 14.5-7.5 20.8 -3.8 5.6-8.5 10.6-13.1 15.6 -4.4 4.9-8.6 10.1-11.7 15.9 -3.1 6-5.7 13.1-12.3 16 -7.7 3.4-17 2.1-25.1 1.8 -4-0.1-8.1-0.1-12.1 0.5 -3.6 0.5-7.1 1.6-10.5 2.8 -13.6 5-25.8 13.8-40.8 14.3 -14.2 0.5-28-5.3-37.6-15.7 -5.2-5.7-9.4-12.2-14.4-18 -4.8-5.6-10.5-10.3-17-13.9 -6-3.4-12.5-5.4-19.1-7.3 -6.3-1.8-12.8-3.7-18.3-7.4 -12.4-8.3-12.9-23.8-12.7-37.3 0.4-17.4 0.7-34.8 1.1-52.3 0.2-8.7 0.3-17.3 0.6-26 0.2-8.2 0.6-16.6 3.2-24.5 2.4-7.5 6.9-14.1 11.6-20.3 4.8-6.3 9.6-12.5 14.7-18.5 5-5.9 10.3-11.6 16.2-16.6 6.3-5.4 13.3-9.7 20.4-13.8 7.2-4.1 14.3-8.4 22.1-11.4 8-3 16.3-3.8 24.8-3.8 17.3 0 34.7 0.6 52 1.3 16.7 0.7 33.7 2.1 49.7 7.4 7.5 2.5 14.4 6 20.9 10.5 4.9 3.4 9.7 6.8 14.1 10.9 3.8 3.5 7 7.5 9.2 12.2 2.6 5.5 3.5 11.5 4 17.5 0.4 5.2 1.2 10.3 1.5 15.5 0.3 4.1-0.2 8.1-1.4 12.1 -0.8 2.7-1.8 5.4-2.8 8 -0.7 1.8-1.5 3.7-2.3 5.5C536.5 259.2 535.6 260.4 535 261.7c-0.4 0.8 0.8 1.5 1.2 0.7 0.6-1.3 1.5-2.5 2.1-3.8 0.8-1.8 1.5-3.6 2.3-5.4 1.2-2.9 2.3-5.8 3.1-8.8 1.1-4 1.6-8 1.4-12.1 -0.3-5.3-1.1-10.6-1.6-16 -0.5-5.9-1.4-11.7-3.8-17.1 -4.6-10.3-14-17.1-23-23.4 -6.4-4.5-13-8.1-20.3-10.7 -7.9-2.8-16.2-4.6-24.5-5.8 -17.3-2.5-35-2.7-52.4-3.1 -8.9-0.2-17.7-0.5-26.6-0.5 -8.3 0-16.6 0.6-24.5 3.4 -7.8 2.8-15 7-22.2 11.2 -7.1 4.1-14.2 8.3-20.5 13.6 -12.1 10-21.8 22.7-31.4 35.1 -4.8 6.3-9.5 12.8-12.3 20.3 -2.9 7.7-3.6 16-3.8 24.2 -0.6 17.7-0.8 35.4-1.1 53.2 -0.2 9.1-0.4 18.2-0.6 27.3 -0.1 6.9-0.2 13.9 1.4 20.7 1.5 6.5 4.6 12.4 9.8 16.6 5.1 4.1 11.3 6.3 17.4 8.1 6.9 2.1 13.8 3.8 20.2 7.1 6.9 3.5 13 8.3 18.1 14.1 5.2 5.8 9.3 12.5 14.6 18.2 4.8 5.2 10.5 9.4 16.9 12.2 6.3 2.7 13.1 4.2 20 4.3 7.3 0.1 14.2-1.7 20.9-4.4 6.9-2.8 13.5-6.5 20.5-9.2 3.5-1.4 7.1-2.6 10.8-3.3 4.2-0.8 8.4-0.8 12.6-0.7 8.1 0.3 16.9 1.4 24.8-1.3 6.9-2.4 10.1-8.6 13.2-14.8 3.1-6.3 7.2-11.8 11.8-17 4.5-5.1 9.2-9.9 13.2-15.5 4.2-5.9 7.2-12.5 8.3-19.7 1.2-7.9 0.5-16-0.5-23.9 -1.1-8.2-2.6-16.5-3.1-24.8 -0.4-8.3 0.2-16.7 1.7-24.9 1.5-8 4-15.9 7.2-23.4C536.5 261.6 535.3 260.9 535 261.7z"/><path class="st2" d="M554.5 208.2c0.1 20.9-6.6 41.2-4 62.1 2.3 18.8 9.6 36.6 11.9 55.4 1.1 9.1 0.9 18.5-2 27.3 -2.9 9-8.2 16.8-13.5 24.4 -5.1 7.3-10 14.6-13.6 22.8 -3.3 7.5-5.9 15.3-9.3 22.8 -3.3 7.3-7.3 14.3-13.4 19.6 -6.5 5.7-14.7 8.8-23.1 10.1 -8.8 1.4-17.8 1.2-26.7 1.1 -8.8-0.1-17.6 0.1-26.4 1.6 -9.6 1.6-19 4.1-28.6 5.8 -9.2 1.6-18.9 2.4-28.1-0.1 -17.5-4.8-26.4-21.6-41.2-30.6 -13.7-8.3-30.3-9.7-45.8-11.9 -15.6-2.2-32.3-5.4-43.6-17.4 -11.4-12.1-14.5-29.7-13.6-45.8 1.1-20 8.6-38.9 12.7-58.3 2.1-9.9 2.7-19.9 3-30 0.2-10.2 0.5-20.6 3.7-30.5 5.1-15.7 16.6-27.9 28.7-38.6 6.3-5.6 12.8-10.9 19.1-16.3 6.5-5.6 12.6-11.4 18.4-17.6 6.4-6.8 12.8-13.7 20.9-18.4 8.1-4.7 17.3-6.9 26.6-7.5 19-1.2 37.7 3.3 56.6 3.2 20.9-0.1 41.4-5.7 62.2-6.5 17.8-0.7 36.5 2.1 50.6 13.9 5.5 4.6 10.2 10.2 13.5 16.6 3.7 7.2 5.5 15.2 5.8 23.2C555.1 195 554.5 201.6 554.5 208.2c0 0.6 0.9 0.6 0.9 0 0-7.1 0.8-14.2 0.3-21.2 -0.5-7.7-2.3-15.3-5.8-22.2 -7.2-14-20.6-24-35.7-28.1 -18.8-5.1-38.3-2.5-57.2 0.3 -10.9 1.6-21.9 3.2-32.9 3.4 -9.7 0.1-19.4-1-29.1-1.9 -18.2-1.8-38-3.6-54.7 5.7 -8.1 4.5-14.6 11.2-21 17.9 -6 6.4-12.2 12.5-18.8 18.2 -12.7 11-26.4 21.3-36.9 34.5 -4.9 6.1-9 12.9-11.6 20.4 -3.4 9.6-3.8 19.9-4.1 30 -0.3 10.7-0.8 21.1-2.9 31.6 -2.1 10.4-5.2 20.5-7.8 30.7 -4.4 17.2-7.3 35.1-2.8 52.5 2 7.6 5.4 14.8 10.6 20.8 5.1 5.8 11.7 10.1 18.9 12.9 15.4 6 32.3 6.2 48.4 9.4 8 1.6 16 4 23.1 8.2 7.6 4.5 13.5 11.1 19.8 17.1 6.3 6 13.1 11.3 21.5 13.7 8.8 2.5 18.2 2 27.2 0.5 9.8-1.6 19.4-4.2 29.2-5.9 9.3-1.6 18.6-1.8 28.1-1.7 16.7 0.1 35.3 0.7 48.9-10.5 12.9-10.6 17.1-27.7 23.5-42.4 3.6-8.3 8.5-15.8 13.7-23.2 5.3-7.6 10.6-15.2 13.7-24 6.3-18 1.5-37.2-3.1-55 -2.5-9.6-5.1-19.1-6.3-29 -1.3-10.3-0.5-20.6 0.9-30.9 1.4-10.4 3.1-20.9 3.1-31.4C555.4 207.6 554.5 207.6 554.5 208.2z"/><path class="st2" d="M236.5 246.1c5.8-4.1 11.6-8.6 15-14.9 3.3-6.1 4.6-13.3 6.4-19.9 5.1-19.1 9.6-40.2 25.6-53.5 8.2-6.8 18-11.2 26.7-17.3 8-5.6 14.7-12.7 21.2-19.9 6.6-7.2 13.1-14.7 20.9-20.8 4.2-3.3 8.7-6.4 13.8-8.1 6.2-2.1 11.9-0.9 17.7 1.6 10.1 4.4 20 8.8 30.6 12.1 10.7 3.3 21.6 5.9 32.6 7.5 11 1.7 22 2.5 33.1 2.5 5.7 0 11.5-0.3 17.2-0.7 5.3-0.4 10.7-1.2 16-1.4 5.8-0.2 11.8 0.3 17.1 2.9 4.3 2.1 7.8 5.3 10.5 9.1 6 8.4 7.9 18.7 9.2 28.7 1.3 10.3 2.3 20.6 6.6 30.1 3.3 7.3 8 13.8 13.2 19.8 10.9 12.6 24.1 23.1 34.6 36.1 5.1 6.3 9.5 13.3 12.1 21 3.4 10 3.4 20.7 0.9 31 -5.4 22.2-20.6 39.5-35.1 56.4 -7.2 8.4-14.3 16.9-20.4 26.2 -6.3 9.5-11.7 19.6-16.8 29.8 -4.8 9.9-9.1 20-13.8 29.9 -4.3 9-9.3 18-17.1 24.5 -8.4 7-19.3 10.1-29.8 12.6 -11.8 2.8-23.7 5.4-35.6 7.8 -12 2.4-24.1 5-36.2 6.5 -11.3 1.4-22.6 1.3-33.6-1.5 -19.8-5-37.1-16.7-54-27.7 -8.7-5.7-17.5-11.3-26.7-16.1 -10.3-5.4-21-9.9-31.6-14.8 -19-8.6-38.1-18.5-52-34.5 -6.7-7.7-11.8-16.7-14.2-26.6 -2.7-11.1-2.2-22.7 0.2-33.7 2.4-11.1 6.5-21.7 11.2-32 2.2-4.9 4.4-9.7 6.2-14.8 1.8-5.1 3.3-10.2 5.1-15.2C225.7 260.6 229.4 251.2 236.5 246.1c0.7-0.5 0-1.7-0.7-1.2 -6.7 4.9-10.5 13.3-13.3 20.9 -2 5.2-3.6 10.6-5.4 15.9 -1.9 5.7-4.3 11.1-6.8 16.6 -9 19.9-16.5 42.3-11.9 64.3 4.1 19.7 18.1 35 34.2 46.2 18.9 13.1 40.9 20.6 61.4 30.9 19 9.6 36 22.6 54.5 33.1 8.7 4.9 17.8 9.3 27.5 12 10.8 3.1 21.8 3.7 33 2.7 12.2-1.2 24.2-3.7 36.2-6.1 12.3-2.4 24.6-5.1 36.8-7.9 10.4-2.4 21.1-5 30-11.2 8.2-5.7 13.9-14.1 18.4-23 5-9.8 9.1-20.1 13.9-30 5-10.5 10.4-20.9 16.7-30.7 12.4-19.5 29.4-35.3 42.6-54.2 12.1-17.2 20.9-39 15.3-60.2 -4.2-16-15.9-28.5-27.3-39.9 -11.9-11.8-25.2-23.4-32.8-38.7 -5-10.1-6.1-21.1-7.4-32.1 -1.2-9.6-3.1-19.4-8.6-27.6 -5.4-8.2-13.6-12.8-23.3-13.6 -5.5-0.4-11.1 0.2-16.6 0.7 -5.8 0.6-11.6 1-17.4 1.2 -23.2 0.6-46.6-2.6-68.8-9.3 -5.5-1.7-11-3.6-16.4-5.7 -5.5-2.2-10.9-4.8-16.3-7.1 -4.7-2-9.5-3.3-14.7-2.4 -5.1 0.9-9.8 3.6-14 6.5 -16.5 11.4-27.2 29.2-43 41.4 -8.6 6.6-18.6 11.1-27.2 17.6 -7.9 6-13.7 13.9-17.8 22.9 -4.1 9.1-6.7 18.9-9.2 28.6 -2 7.5-3.4 15.6-6.8 22.7 -3.2 6.8-9.1 11.6-15.2 15.9C235.1 245.4 235.8 246.6 236.5 246.1z"/><path class="st2" d="M209.9 257.8c16.4-15.1 29.7-33.4 38.5-53.9 8.2-19.1 11-39.9 18.1-59.4 3.6-9.8 8.5-19.3 15.7-26.9 7.1-7.5 16.1-12.8 25.4-17.2 9.5-4.5 19.4-8.3 28.7-13.3 4.4-2.4 8.7-5.1 12.6-8.2 4.3-3.4 8.3-7.1 12.9-10.1 5-3.2 10.3-5 16.3-4.7 6.1 0.4 12.2 2.4 17.8 4.7 10.9 4.4 21.1 10.6 32.5 14.1 24 7.2 49.4-0.3 73.7 4.8 20.2 4.2 38.6 17.1 49.6 34.6 6.3 10 9.4 21.3 12.4 32.6 3 11.3 6.4 22.3 12.3 32.4 5.5 9.4 12.5 17.7 20.7 24.8 7.6 6.6 15.8 12.4 23 19.3 7.8 7.5 14.1 16.5 15.4 27.5 1.5 12.4-2.8 24.6-7.5 35.8 -5.2 12.2-10.8 24.1-16.3 36.2 -5.6 12.3-11.1 24.6-16.7 37 -5.5 12.2-11 24.3-16.5 36.5 -4.7 10.5-9.6 21.1-16.5 30.4 -7.2 9.7-16.9 16.8-27.2 22.9 -10.1 5.9-20.6 11.3-31.1 16.5 -11.2 5.6-22.6 10.9-34.6 14.7 -12.4 4.1-25.1 6.2-38.1 7.6 -12.6 1.4-25.4 3-38.2 2.7 -13.2-0.3-25.5-3.6-37.6-8.6 -12.3-5.1-24.5-10.7-36.6-16.3 -11.8-5.3-23.5-10.7-35.2-16.3 -22.3-10.5-44.5-21.6-64-36.7 -9.4-7.3-18.2-15.5-25.4-25.1 -6.7-8.9-12.7-18.7-17.8-28.6 -4.4-8.6-7.4-17.9-7.5-27.6 -0.1-10.5 3.4-20.1 6.5-29.9 2-6.3 3.5-12.8 6-19 2.2-5.7 5.7-10.6 9.7-15.2 2.7-3.1 5.7-6 8.6-8.9 1.9-1.8 3.8-4 5.9-5.5C206.8 260.1 208.5 259.1 209.9 257.8c0.7-0.6-0.3-1.5-1-1 -1.5 1.3-3.1 2.3-4.6 3.4 -2.4 1.8-4.5 4.3-6.7 6.4 -3.1 3-6.1 6.1-8.9 9.3 -3.8 4.4-6.9 9.2-9 14.7 -2.5 6.4-4.1 13.1-6.1 19.6 -3.1 10-6.5 19.7-6.3 30.4 0.2 9.2 2.9 18 6.9 26.2 4.9 10 11 19.8 17.6 28.9 14.2 19.6 34.8 33.9 55.6 45.6 22.7 12.8 46.8 23.3 70.5 34.1 11.9 5.4 23.7 10.9 35.8 15.9 11.7 4.9 23.7 8.5 36.5 9.1 13.3 0.6 26.7-1.1 40-2.5 12.8-1.4 25.4-3.4 37.7-7.3 11.8-3.7 23.2-8.8 34.2-14.3 11-5.5 22-11.1 32.6-17.3 9.9-5.7 19.4-12.4 26.6-21.4 7.3-9.1 12.4-19.6 17.2-30.1 11.4-25 22.6-50.1 34-75.1 5.6-12.4 11.4-24.6 16.7-37.1 4.7-10.9 8.8-22.8 7.9-34.8 -1.7-21.6-20.3-33.9-35.5-46.5 -8.8-7.3-16.6-15.6-22.7-25.5 -6.5-10.6-10.2-22.1-13.4-34 -3-11.3-6.1-22.6-12.3-32.6 -5.2-8.4-12.1-15.7-20-21.6 -8.1-6-17.4-10.5-27.2-13.1 -11.9-3.1-24.3-2.9-36.5-2.5 -13 0.4-26.3 0.9-39-2.6 -11.7-3.2-22.1-9.6-33.3-14.2 -10.5-4.4-22.2-7.6-32.9-2 -4.5 2.4-8.4 5.7-12.3 8.9 -4.3 3.6-8.7 6.8-13.5 9.6 -18.1 10.5-39.8 15.5-55.2 30.3 -15.1 14.6-20.5 35.7-25.5 55.4 -2.7 10.6-5.5 21.1-9.6 31.2 -4.4 10.7-10 20.8-16.7 30.2 -6.5 9.2-14.1 17.7-22.4 25.4C208.3 257.4 209.3 258.3 209.9 257.8z"/><path class="st2" d="M163.1 291.1c14.7-25.3 37-45.5 49.7-72.1 10.6-22.3 15.1-46.8 22.8-70.1 3.8-11.5 8.5-22.9 15.1-33.1 7.4-11.3 17.2-20.2 28.7-27 12.2-7.2 25.5-12.3 38-18.8 11.7-6.1 22.1-13.9 32.3-22 10-7.9 20.2-16 31.8-21.5 12.5-5.9 26.2-7.6 39.8-4.7 27.3 5.9 49.2 25.3 74.1 36.6 22.2 10.1 46.6 14.3 68.3 25.5 10.8 5.6 20.7 13.3 27.4 23.6 7.8 12.1 10.6 26.4 14.5 40 3.4 11.8 8.1 22.7 15.6 32.4 6.8 8.7 15 16.2 23.4 23.1 17.5 14.4 37.3 27 50.9 45.4 7.5 10.1 12.5 21.8 13.6 34.4 1.3 14.1-1.9 28.2-7.5 41.1 -11.9 27.5-34 47.9-54.9 68.7 -10.4 10.3-20.6 20.9-29.2 32.8 -8.4 11.6-15.2 24.3-23.3 36.1 -7.9 11.6-17.1 21.9-28.9 29.6 -10.9 7.1-23.2 11.9-35.8 15.4 -25.8 7.2-52.6 9.5-78.5 16 -15.1 3.8-29.8 9.4-45.3 11.5 -13.9 1.9-27.7 0.1-40.8-4.9 -25.2-9.6-45.8-28.1-67.9-43 -12.3-8.3-25.3-15.2-38.9-21.1 -14-6.1-28.4-11.4-42.5-17.5 -24.9-10.8-50.4-25.4-65.4-48.8 -7.2-11.3-11.7-24.7-12.7-38.1 -1.1-14.4 2.2-28.7 8.5-41.6C151.2 309.2 157.7 300.4 163.1 291.1c0.3-0.5-0.5-1-0.8-0.5 -5.9 10.2-13.1 19.7-18 30.5 -5.6 12.3-8.4 25.8-7.4 39.3 1 12.7 5 25.4 11.5 36.4 6.6 11.1 15.9 20.4 26.1 28.3 23.8 18.2 52.5 27.5 79.8 39 14.3 6.1 28.1 13 41.1 21.7 11.5 7.7 22.4 16.1 33.8 24 22 15.2 46.3 28.3 73.9 25.4 15.8-1.6 30.7-7.3 46-11.3 13.2-3.4 26.7-5.7 40.2-8.1 25.8-4.5 52.8-9 75.4-23.1 11.5-7.1 20.7-16.7 28.5-27.7 8.5-11.9 15.3-24.9 23.7-36.8 17.8-25.3 42.6-44.5 62.7-67.9 17.6-20.5 32.3-46.8 30.9-74.7 -2.6-50.7-58.3-69.7-86.6-104 -8.6-10.4-13.7-22.2-17.4-35.1 -3.8-13.4-6.7-27.5-14.4-39.4 -13.2-20.6-37.4-29.2-59.6-36.4 -12.2-4-24.6-7.7-36.3-13 -12.9-5.9-24.9-13.6-37.2-20.7 -11.6-6.7-23.8-13.1-37.1-15.9 -12.6-2.7-25.5-1.6-37.4 3.4 -11.7 4.9-21.9 12.6-31.8 20.4 -10.9 8.6-21.6 17.2-33.9 23.7 -12.8 6.8-26.3 11.9-38.8 19.2 -11.1 6.4-20.7 14.7-28.1 25.2 -14.3 20.3-19.9 45.2-26.6 68.7 -3.6 12.5-7.4 24.9-13 36.7 -6.3 13.4-15.2 25.3-24.3 37 -9 11.5-18.2 22.9-25.6 35.5C162 291.1 162.8 291.6 163.1 291.1z"/></g></svg>